<svg xmlns="http://www.w3.org/2000/svg"><defs>
        <style>
            .cls-1{fill:#333}.cls-1,.cls-2{fill-rule:evenodd}.cls-2{fill:#fdba33}
        </style>
    </defs><symbol id="lightbulb_illustrator" viewBox="0 0 28.74 42.08">
    
    <title>
        lightbulb
    </title>
    <path class="cls-1" d="M28.7 11.35c-.32-3.6-2.42-7.46-4.71-9.11-2-1.47-6.19-2.41-9.93-2.21-3.48.18-7.31.77-9.65 2.92a12.92 12.92 0 0 0-4.4 9.07 17.11 17.11 0 0 0 1.77 7.22c.85 1.54 2.11 4 3.16 5.69a16.86 16.86 0 0 1 1.91 4.58c.16 1-.79 1.41-.75 1.72 0 .54.58.53.79.93a4.42 4.42 0 0 1-.16 1.9 7.11 7.11 0 0 0 .41 3.44c.21 1.15.95.07.85 1.58-.05.81-.15 1.92.27 2.41s1.59.48 2.46.54c.59 0 2.51.18 2.77-.49.46-1.2.13-1.75.35-3 4.33.93 2.27-5.28 2.93-7.53.3-1 .14-2.25.74-2.88 1.09-1.18 2.61-2.41 3.87-3.6 3.66-3.5 7.81-7.78 7.32-13.18-.09-1.02.07.74 0 0zM12.55 40.96a4 4 0 0 1-1.57.08 4.36 4.36 0 0 1-1.67-.18c-.47-.3-.26-1.91 0-2.21a11.16 11.16 0 0 1 3.39 0 3.81 3.81 0 0 1-.15 2.31zm-1-3.78c-.87-.05-2.9.29-3.19-.25s-.25-2.36.1-2.51a43.91 43.91 0 0 1 6.78 0 5.73 5.73 0 0 1-.1 2.75c-.23.2-2.71.06-3.57.01zm3.78-3.78a13.92 13.92 0 0 1-3.1 0c-1.36-.08-3.54.38-3.88.15s-.15-1.21-.15-1.62c0-.6 3.48 0 4 0 1 0 2.5-.37 2.9-.1a1.6 1.6 0 0 1 .25 1.56z"/>
    <path class="cls-2" d="M27.19 13.44c-.82 3.41-2.66 5.32-5 7.83-1.68 1.81-3.51 3.42-5.26 5.33a3.58 3.58 0 0 0-1.21 1.7 7.51 7.51 0 0 1-.43 2.15c-.29.3-3.15.24-4.13.2s-2.43.22-2.9-.49a5.21 5.21 0 0 1-.15-1.28c0-1.49-2.31-5.5-3.7-7.69-3.31-5.21-4.56-12.24.5-16.88 1.46-1.33 4.77-2.9 9.63-2.9s8.11 1.5 8.8 2.11c4.05 3.58 4.33 7.94 3.85 9.92z"/>
    <path class="cls-1" d="M18.4 11.72c-1.13-.54-2.8 1.69-3.54 1.57s-1.28-1.52-2-1.52c-.34 0-1 1.07-1.72.88s-1.64-1.83-1.92-2c-1.51-.93-1.76 1.31-1.57 2.3.3 1.5 2 6.88 2.41 8.19a14.74 14.74 0 0 1 .64 4c-.1.87.21 1.88.64 1.82s.46-3.07-.1-5.5c-.43-1.84-1-3.19-1.67-5.26-.11-.34-.87-3.75-.49-3.93s1.26 1.57 2 1.57 1.19-1 1.87-.88 1.61 1.47 1.87 1.42c.54-.1 2.51-1.77 2.7-1.62s-2 4-2.21 4.72c-.54 1.52-1.57 4-1.94 5.32s-.57 3-.17 3.18 1.37-4.36 1.72-5.41c.87-2.61 4.51-8.36 3.48-8.85z"/>
</symbol><symbol id="network_illustrator" viewBox="0 0 85.87 93.05">
    <title>
        icon_network
    </title>
    <path d="M81.78 47.18c0 .4.07.79.06 1.18s-.13.79-.15 1.17 0 .79 0 1.17-.09.78-.12 1.17 0 .79-.07 1.17-.11.78-.17 1.16-.1.78-.16 1.16-.07.79-.14 1.17-.17.77-.26 1.15-.27.74-.37 1.12-.08.8-.19 1.17-.32.72-.46 1.09-.32.72-.46 1.08-.24.75-.4 1.1-.27.74-.45 1.09-.43.66-.62 1-.36.69-.57 1-.49.61-.71.94-.44.64-.67 1-.43.64-.67.95-.43.65-.67.95-.56.54-.81.84-.42.66-.68 1-.53.56-.8.85-.52.57-.8.85-.64.46-.92.72-.52.58-.81.84l-.87.77c-.29.25-.55.56-.85.8s-.68.39-1 .63-.55.56-.87.79-.65.43-1 .65-.71.33-1 .54-.63.46-1 .66-.65.43-1 .61-.71.35-1.05.53-.67.42-1 .59-.73.29-1.09.45l-1.07.48c-.36.15-.75.23-1.11.38s-.71.33-1.08.46-.71.33-1.09.45-.78.12-1.16.23-.73.28-1.12.37-.78.09-1.16.17-.74.26-1.13.33-.78.08-1.17.14-.77.16-1.16.2-.78 0-1.18 0h-1.17c-.39 0-.78.11-1.17.11h-1.18l-1.17-.07c-.39 0-.77-.15-1.16-.19l-1.17-.12c-.39 0-.78-.08-1.16-.13l-1.16-.17c-.39-.07-.76-.17-1.15-.25s-.78-.09-1.16-.18-.77-.14-1.15-.23-.76-.23-1.13-.33-.74-.26-1.12-.37-.73-.28-1.1-.4-.79-.11-1.16-.23-.71-.34-1.07-.48l-1.09-.43c-.35-.15-.72-.26-1.07-.41s-.67-.37-1-.53-.71-.28-1.05-.45-.65-.4-1-.58-.7-.32-1-.51-.68-.34-1-.54-.66-.39-1-.6-.59-.5-.9-.71-.66-.39-1-.62-.64-.42-.94-.66-.55-.54-.84-.78-.57-.51-.85-.76-.63-.44-.9-.71-.49-.59-.76-.86-.58-.5-.83-.79-.54-.54-.79-.83-.41-.64-.65-.95-.53-.55-.75-.86-.34-.69-.55-1-.5-.59-.69-.92-.27-.72-.45-1.06-.44-.63-.61-1-.31-.7-.47-1-.32-.69-.47-1-.27-.71-.42-1.06-.36-.68-.5-1-.2-.74-.33-1.1-.27-.71-.39-1.07-.29-.71-.4-1.08-.23-.73-.32-1.11-.07-.77-.16-1.15-.19-.74-.27-1.12-.13-.76-.19-1.14-.18-.75-.23-1.13 0-.77-.08-1.15 0-.77-.08-1.15-.1-.76-.13-1.15-.09-.77-.11-1.15 0-.77-.05-1.16 0-.77 0-1.15-.06-.77-.06-1.15.09-.77.1-1.16-.08-.78-.06-1.16 0-.78.08-1.16.08-.77.12-1.16.2-.76.26-1.14.09-.77.16-1.15.14-.76.22-1.14.14-.76.23-1.14.28-.73.38-1.1.18-.75.3-1.12.16-.76.29-1.13.28-.72.42-1.08.35-.69.5-1 .28-.72.44-1.07.36-.69.53-1 .28-.73.47-1.07.43-.65.62-1 .42-.65.63-1 .37-.68.59-1 .45-.63.68-.94.42-.65.65-1 .52-.57.76-.88.38-.68.63-1 .56-.54.82-.83.51-.59.78-.86.52-.58.8-.85.6-.49.89-.75.57-.53.87-.77.63-.45.94-.68.6-.5.91-.72.61-.49.93-.7.67-.39 1-.59.68-.36 1-.55.66-.41 1-.59.67-.39 1-.56.74-.25 1.09-.41.69-.36 1-.51.73-.27 1.09-.41.71-.33 1.07-.46.74-.22 1.11-.34.75-.21 1.12-.32l1.12-.31c.37-.1.74-.23 1.12-.32s.77-.11 1.15-.19.74-.26 1.13-.32.77-.09 1.16-.15.78 0 1.17 0 .76-.21 1.14-.25.78-.05 1.16-.08.78 0 1.17 0h1.17c.39 0 .77-.16 1.16-.16s.78.12 1.16.12h2.32c.38 0 .77.07 1.16.09s.77.07 1.16.09.78-.07 1.17 0 .76.2 1.14.25.77.07 1.15.13.77.1 1.14.18.78.08 1.15.18.72.31 1.08.43.72.28 1.08.41.73.21 1.08.35.68.35 1 .51.72.26 1.06.43.64.41 1 .59.72.26 1.05.45.6.48.92.68.67.37 1 .58.68.36 1 .58.58.5.88.73.63.43.93.66.59.49.88.73.56.52.84.77l.85.76c.28.26.58.49.85.76s.57.51.83.79.44.63.7.91.48.59.73.88.53.55.77.84.51.57.74.86.48.59.71.89.39.65.61 1 .48.59.69.89.49.58.7.89.34.68.54 1 .44.61.63.94.37.65.55 1 .32.68.48 1 .4.64.55 1 .25.71.38 1.06.23.7.34 1.06.21.71.31 1.07.12.73.21 1.1.29.69.37 1.06.11.73.17 1.1.15.73.21 1.1 0 .75.08 1.12 0 .74.08 1.11.14.74.17 1.11 0 .75.07 1.12.06.74.07 1.11.11.75.12 1.12 0 .75 0 1.11.06.51.06.88z" fill="#fff"/>
    <path d="M81.78 47.18c0 .4.07.79.06 1.18s-.13.79-.15 1.17 0 .79 0 1.17-.09.78-.12 1.17 0 .79-.07 1.17-.11.78-.17 1.16-.1.78-.16 1.16-.07.79-.14 1.17-.17.77-.26 1.15-.27.74-.37 1.12-.08.8-.19 1.17-.32.72-.46 1.09-.32.72-.46 1.08-.24.75-.4 1.1-.27.74-.45 1.09-.43.66-.62 1-.36.69-.57 1-.49.61-.71.94-.44.64-.67 1-.43.64-.67.95-.43.65-.67.95-.56.54-.81.84-.42.66-.68 1-.53.56-.8.85-.52.57-.8.85-.64.46-.92.72-.52.58-.81.84l-.87.77c-.29.25-.55.56-.85.8s-.68.39-1 .63-.55.56-.87.79-.65.43-1 .65-.71.33-1 .54-.63.46-1 .66-.65.43-1 .61-.71.35-1.05.53-.67.42-1 .59-.73.29-1.09.45l-1.07.48c-.36.15-.75.23-1.11.38s-.71.33-1.08.46-.71.33-1.09.45-.78.12-1.16.23-.73.28-1.12.37-.78.09-1.16.17-.74.26-1.13.33-.78.08-1.17.14-.77.16-1.16.2-.78 0-1.18 0h-1.17c-.39 0-.78.11-1.17.11h-1.18l-1.17-.07c-.39 0-.77-.15-1.16-.19l-1.17-.12c-.39 0-.78-.08-1.16-.13l-1.16-.17c-.39-.07-.76-.17-1.15-.25s-.78-.09-1.16-.18-.77-.14-1.15-.23-.76-.23-1.13-.33-.74-.26-1.12-.37-.73-.28-1.1-.4-.79-.11-1.16-.23-.71-.34-1.07-.48l-1.09-.43c-.35-.15-.72-.26-1.07-.41s-.67-.37-1-.53-.71-.28-1.05-.45-.65-.4-1-.58-.7-.32-1-.51-.68-.34-1-.54-.66-.39-1-.6-.59-.5-.9-.71-.66-.39-1-.62-.64-.42-.94-.66-.55-.54-.84-.78-.57-.51-.85-.76-.63-.44-.9-.71-.49-.59-.76-.86-.58-.5-.83-.79-.54-.54-.79-.83-.41-.64-.65-.95-.53-.55-.75-.86-.34-.69-.55-1-.5-.59-.69-.92-.27-.72-.45-1.06-.44-.63-.61-1-.31-.7-.47-1-.32-.69-.47-1-.27-.71-.42-1.06-.36-.68-.5-1-.2-.74-.33-1.1-.27-.71-.39-1.07-.29-.71-.4-1.08-.23-.73-.32-1.11-.07-.77-.16-1.15-.19-.74-.27-1.12-.13-.76-.19-1.14-.18-.75-.23-1.13 0-.77-.08-1.15 0-.77-.08-1.15-.1-.76-.13-1.15-.09-.77-.11-1.15 0-.77-.05-1.16 0-.77 0-1.15-.06-.77-.06-1.15.09-.77.1-1.16-.08-.78-.06-1.16 0-.78.08-1.16.08-.77.12-1.16.2-.76.26-1.14.09-.77.16-1.15.14-.76.22-1.14.14-.76.23-1.14.28-.73.38-1.1.18-.75.3-1.12.16-.76.29-1.13.28-.72.42-1.08.35-.69.5-1 .28-.72.44-1.07.36-.69.53-1 .28-.73.47-1.07.43-.65.62-1 .42-.65.63-1 .37-.68.59-1 .45-.63.68-.94.42-.65.65-1 .52-.57.76-.88.38-.68.63-1 .56-.54.82-.83.51-.59.78-.86.52-.58.8-.85.6-.49.89-.75.57-.53.87-.77.63-.45.94-.68.6-.5.91-.72.61-.49.93-.7.67-.39 1-.59.68-.36 1-.55.66-.41 1-.59.67-.39 1-.56.74-.25 1.09-.41.69-.36 1-.51.73-.27 1.09-.41.71-.33 1.07-.46.74-.22 1.11-.34.75-.21 1.12-.32l1.12-.31c.37-.1.74-.23 1.12-.32s.77-.11 1.15-.19.74-.26 1.13-.32.77-.09 1.16-.15.78 0 1.17 0 .76-.21 1.14-.25.78-.05 1.16-.08.78 0 1.17 0h1.17c.39 0 .77-.16 1.16-.16s.78.12 1.16.12h2.32c.38 0 .77.07 1.16.09s.77.07 1.16.09.78-.07 1.17 0 .76.2 1.14.25.77.07 1.15.13.77.1 1.14.18.78.08 1.15.18.72.31 1.08.43.72.28 1.08.41.73.21 1.08.35.68.35 1 .51.72.26 1.06.43.64.41 1 .59.72.26 1.05.45.6.48.92.68.67.37 1 .58.68.36 1 .58.58.5.88.73.63.43.93.66.59.49.88.73.56.52.84.77l.85.76c.28.26.58.49.85.76s.57.51.83.79.44.63.7.91.48.59.73.88.53.55.77.84.51.57.74.86.48.59.71.89.39.65.61 1 .48.59.69.89.49.58.7.89.34.68.54 1 .44.61.63.94.37.65.55 1 .32.68.48 1 .4.64.55 1 .25.71.38 1.06.23.7.34 1.06.21.71.31 1.07.12.73.21 1.1.29.69.37 1.06.11.73.17 1.1.15.73.21 1.1 0 .75.08 1.12 0 .74.08 1.11.14.74.17 1.11 0 .75.07 1.12.06.74.07 1.11.11.75.12 1.12 0 .75 0 1.11.06.51.06.88z" fill="none" stroke="#333" stroke-linecap="round" stroke-linejoin="round" stroke-width="1.25"/>
    <path d="M60.61 42.62c-.74-.53-1.57-.91-2.31-1.44-.47-.34-.92.44-.46.78.74.53 1.56.91 2.31 1.44.47.34.92-.44.46-.78zM56.33 40.21a8.29 8.29 0 0 1-1.91-.89.453.453 0 0 0-.46.78 9.23 9.23 0 0 0 2.13 1 .45.45 0 0 0 .24-.87zM52.49 39.25a.45.45 0 0 0 0-.9.45.45 0 0 0 0 .9zM50.69 37.63a24.09 24.09 0 0 0-2.9-1.35c-.54-.22-.77.65-.24.87a22.31 22.31 0 0 1 2.69 1.26.453.453 0 0 0 .46-.78zM46.08 35.52c-1.15-.38-2.26-.92-3.45-1.19a.45.45 0 0 0-.24.87c1.19.27 2.29.81 3.45 1.19.55.18.79-.69.24-.87zM41.12 34.48a.45.45 0 0 0 0-.9.45.45 0 0 0 0 .9zM39.37 32.83a27.08 27.08 0 0 1-3.3-1c-.55-.2-.78.67-.24.87a27.08 27.08 0 0 0 3.3 1c.57.13.81-.74.24-.87zM37.18 63.5c.83-.37 1.58-.88 2.41-1.25.53-.23.07-1-.46-.78-.83.37-1.58.88-2.41 1.25-.53.23-.07 1 .46.78zM41.42 61.05a8.51 8.51 0 0 1 1.74-1.19.453.453 0 0 0-.46-.78 9.45 9.45 0 0 0-1.93 1.33.453.453 0 0 0 .64.64zM44.59 58.89a.45.45 0 0 0 0-.9.45.45 0 0 0 0 .9zM46.49 57.51a23.06 23.06 0 0 0 2.55-1.74c.46-.35 0-1.13-.46-.78a23.06 23.06 0 0 1-2.55 1.74.453.453 0 0 0 .46.78zM50.69 54.62c.92-.8 1.95-1.47 2.78-2.36a.453.453 0 0 0-.64-.64c-.84.88-1.87 1.56-2.78 2.36-.44.38.2 1 .64.64zM54.49 51.57a.45.45 0 0 0 0-.9.45.45 0 0 0 0 .9zM56.43 50.22a27.11 27.11 0 0 1 2.56-2.33c.45-.37-.19-1-.64-.64a27.11 27.11 0 0 0-2.56 2.31.453.453 0 0 0 .64.64zM32.69 33.74c-.06.91.06 1.81 0 2.72 0 .58.87.58.9 0 .06-.91-.06-1.81 0-2.72 0-.58-.87-.58-.9 0zM32.91 38.64a8.42 8.42 0 0 1 .26 2.09.45.45 0 0 0 .9 0 9.44 9.44 0 0 0-.29-2.33.45.45 0 0 0-.87.24zM33.74 43.11a.45.45 0 0 0 0-.9.45.45 0 0 0 0 .9zM33.71 44.79a23.94 23.94 0 0 0 .38 3.18c.1.57 1 .33.87-.24a22.12 22.12 0 0 1-.35-2.94.45.45 0 0 0-.9 0zM34.36 49.83c.28 1.18.42 2.4.81 3.55.19.55 1.06.31.87-.24-.4-1.15-.53-2.37-.81-3.55a.45.45 0 0 0-.87.24zM35.72 55.28a.45.45 0 0 0 0-.9.45.45 0 0 0 0 .9zM35.62 56.95a27.36 27.36 0 0 1 .88 3.34c.12.57 1 .33.87-.24a27.36 27.36 0 0 0-.88-3.34c-.19-.54-1.06-.31-.87.24zM16.23 67.59a24 24 0 0 1 2.45-.75.45.45 0 0 0-.24-.87 24 24 0 0 0-2.45.75c-.54.2-.31 1.07.24.87zM21.03 66.41a18.58 18.58 0 0 1 3.18-.84c.57-.07.58-1 0-.9a19.79 19.79 0 0 0-3.42.87.45.45 0 0 0 .24.87zM28.49 64.45a12.33 12.33 0 0 1 3.39-1c.57-.07.58-1 0-.9a13.79 13.79 0 0 0-3.84 1.1c-.53.23-.07 1 .46.78zM26.02 65.15a.45.45 0 0 0 0-.9.45.45 0 0 0 0 .9zM39.81 67.4a25 25 0 0 0 1 2.5c.23.53 1 .07.78-.46a22.82 22.82 0 0 1-.87-2.29.45.45 0 0 0-.87.24zM41.83 71.89a19.91 19.91 0 0 0 1.4 3.24.453.453 0 0 0 .78-.46 18.55 18.55 0 0 1-1.3-3c-.2-.54-1.08-.3-.87.24zM44.82 78.89a13.46 13.46 0 0 0 1.44 3.6.453.453 0 0 0 .78-.46 12.59 12.59 0 0 1-1.35-3.38.45.45 0 0 0-.87.24zM44.39 77.06a.45.45 0 0 0 0-.9.45.45 0 0 0 0 .9zM74.08 60.24a23.93 23.93 0 0 1-1.79-1.83c-.39-.43-1 .21-.64.64a23.93 23.93 0 0 0 1.84 1.84.453.453 0 0 0 .64-.64zM70.82 56.53a18.31 18.31 0 0 1-2.21-2.44c-.32-.48-1.11 0-.78.46a19.52 19.52 0 0 0 2.35 2.63.453.453 0 0 0 .64-.64zM65.72 50.89a12.47 12.47 0 0 1-2.52-2.63c-.32-.48-1.11 0-.78.46a13.2 13.2 0 0 0 2.66 2.81c.45.36 1.09-.27.64-.64zM67 53.36a.45.45 0 0 0 0-.9.45.45 0 0 0 0 .9zM63.02 39.42a24.17 24.17 0 0 0 1.7-1.92c.36-.45-.27-1.09-.64-.64a24.17 24.17 0 0 1-1.7 1.92.453.453 0 0 0 .64.64zM66.09 35.55a19.7 19.7 0 0 0 2.22-2.74.453.453 0 0 0-.78-.46 18.4 18.4 0 0 1-2.04 2.54c-.38.43.25 1.07.64.64zM70.9 29.67a13.27 13.27 0 0 0 2.52-2.94.453.453 0 0 0-.78-.46 12.47 12.47 0 0 1-2.38 2.76c-.43.39.21 1 .64.64zM69.07 31.57a.45.45 0 0 0 0-.9.45.45 0 0 0 0 .9zM38 12.64a23.69 23.69 0 0 1-.58 2.5.45.45 0 0 0 .87.24 23.69 23.69 0 0 0 .58-2.5c.1-.57-.77-.81-.87-.24zM36.61 17.38a18.54 18.54 0 0 1-.87 3.18c-.23.53.55 1 .78.46a19.69 19.69 0 0 0 1-3.39.45.45 0 0 0-.87-.24zM34.56 24.82a12.34 12.34 0 0 1-.85 3.42c-.23.53.55 1 .78.46a13.81 13.81 0 0 0 1-3.87c.07-.58-.84-.57-.9 0zM35.58 23.01a.45.45 0 0 0 0-.9.45.45 0 0 0 0 .9zM26.34 33.15a25.18 25.18 0 0 0-2.65-.43c-.58-.07-.57.84 0 .9a22.91 22.91 0 0 1 2.41.4.45.45 0 0 0 .24-.87zM21.43 32.62a20.09 20.09 0 0 0-3.51-.42.45.45 0 0 0 0 .9 18.68 18.68 0 0 1 3.27.39c.57.09.81-.78.24-.87zM13.88 31.71a13.55 13.55 0 0 0-3.84-.56.45.45 0 0 0 0 .9 12.64 12.64 0 0 1 3.6.53.45.45 0 0 0 .24-.87zM16.07 32.89a.45.45 0 0 0 0-.9.45.45 0 0 0 0 .9zM16.03 72.32c.74.53 1.57.91 2.31 1.44.47.34.92-.44.46-.78-.74-.53-1.56-.91-2.31-1.44-.47-.34-.92.44-.46.78zM20.31 74.73a8.33 8.33 0 0 1 1.91.89.453.453 0 0 0 .46-.78 9.29 9.29 0 0 0-2.13-1 .45.45 0 0 0-.24.87zM24.15 76.6a.45.45 0 0 0 0-.9.45.45 0 0 0 0 .9zM25.95 77.31a24.11 24.11 0 0 0 2.9 1.36c.54.22.77-.65.24-.87a22.34 22.34 0 0 1-2.69-1.26.453.453 0 0 0-.46.78zM30.57 79.42c1.15.38 2.26.92 3.44 1.19a.45.45 0 0 0 .24-.87c-1.19-.27-2.29-.81-3.44-1.19-.55-.18-.79.69-.24.87zM35.49 81.36a.45.45 0 0 0 0-.9.45.45 0 0 0 0 .9zM37.27 82.11a27.25 27.25 0 0 1 3.3 1c.55.2.78-.67.24-.87a27.25 27.25 0 0 0-3.3-1c-.57-.13-.81.74-.24.87zM51.74 82.59c.83-.38 1.57-.9 2.4-1.28.53-.24.07-1-.46-.78-.83.38-1.57.9-2.4 1.28-.53.24-.07 1 .46.78zM55.96 80.09a8.36 8.36 0 0 1 1.73-1.2.453.453 0 0 0-.46-.78 9.29 9.29 0 0 0-1.91 1.35.453.453 0 0 0 .64.64zM59.1 77.89a.45.45 0 0 0 0-.9.45.45 0 0 0 0 .9zM61.02 76.5a23.75 23.75 0 0 0 2.62-1.84c.46-.35-.18-1-.64-.64a22 22 0 0 1-2.44 1.7.453.453 0 0 0 .46.78zM65.15 73.55c.91-.81 1.93-1.49 2.75-2.39a.453.453 0 0 0-.64-.64c-.83.89-1.85 1.58-2.75 2.39-.43.39.21 1 .64.64zM68.92 70.46a.45.45 0 0 0 0-.9.45.45 0 0 0 0 .9zM70.84 69.09a26.63 26.63 0 0 1 2.53-2.34c.44-.38-.2-1-.64-.64a26.63 26.63 0 0 0-2.53 2.34.453.453 0 0 0 .64.64zM78.49 56.81c.09-.91 0-1.81.09-2.71.06-.58-.85-.57-.9 0-.09.91 0 1.81-.09 2.71-.06.58.85.57.9 0zM78.43 51.89a8.43 8.43 0 0 1-.18-2.1.45.45 0 0 0-.9 0 9.41 9.41 0 0 0 .22 2.34.45.45 0 0 0 .87-.24zM77.74 48.32a.45.45 0 0 0 0-.9.45.45 0 0 0 0 .9zM77.84 45.72a24 24 0 0 0-.28-3.2c-.08-.57-.95-.33-.87.24a22.21 22.21 0 0 1 .25 3 .45.45 0 0 0 .9 0zM77.36 40.67c-.24-1.19-.34-2.41-.69-3.58a.45.45 0 0 0-.87.24c.36 1.17.45 2.39.69 3.58.12.57 1 .33.87-.24zM76.18 36.09a.45.45 0 0 0 0-.9.45.45 0 0 0 0 .9zM76.34 33.51a27.2 27.2 0 0 1-.76-3.36c-.1-.57-1-.33-.87.24a27.2 27.2 0 0 0 .76 3.36.45.45 0 0 0 .87-.24zM69.49 20.76c-.74-.53-1.57-.91-2.31-1.44-.47-.34-.92.44-.46.78.74.53 1.56.91 2.31 1.44.47.34.92-.44.46-.78zM65.25 18.35a8.45 8.45 0 0 1-1.91-.89.453.453 0 0 0-.46.78 9.41 9.41 0 0 0 2.13 1 .45.45 0 0 0 .24-.87zM61.41 17.38a.45.45 0 0 0 0-.9.45.45 0 0 0 0 .9zM59.61 15.77a24.26 24.26 0 0 0-2.9-1.35c-.54-.22-.77.65-.24.87a22.47 22.47 0 0 1 2.69 1.26.453.453 0 0 0 .46-.78zM54.99 13.66c-1.15-.38-2.26-.92-3.45-1.19a.45.45 0 0 0-.24.87c1.19.27 2.29.81 3.45 1.19.55.18.79-.69.24-.87zM50.04 12.62a.45.45 0 0 0 0-.9.45.45 0 0 0 0 .9zM48.29 10.97a27.08 27.08 0 0 1-3.29-1c-.55-.2-.78.67-.24.87a27.08 27.08 0 0 0 3.29 1c.57.13.81-.74.24-.87zM33.82 10.48c-.83.38-1.57.9-2.4 1.28-.53.24-.07 1 .46.78.83-.38 1.57-.9 2.4-1.28.53-.24.07-1-.46-.78zM29.6 12.98a8.39 8.39 0 0 1-1.73 1.21.453.453 0 0 0 .46.78 9.32 9.32 0 0 0 1.91-1.35.453.453 0 0 0-.64-.64zM26.49 16.05a.45.45 0 0 0 0-.9.45.45 0 0 0 0 .9zM24.54 16.58a23.83 23.83 0 0 0-2.62 1.84c-.46.35.18 1 .64.64a22.12 22.12 0 0 1 2.44-1.7.453.453 0 0 0-.46-.78zM20.41 19.52c-.91.81-1.93 1.49-2.75 2.39a.453.453 0 0 0 .64.64c.83-.89 1.85-1.58 2.75-2.39.43-.39-.21-1-.64-.64zM16.64 23.52a.45.45 0 0 0 0-.9.45.45 0 0 0 0 .9zM14.72 23.99a26.74 26.74 0 0 1-2.53 2.34c-.44.38.2 1 .64.64a26.74 26.74 0 0 0 2.53-2.34.453.453 0 0 0-.64-.64zM7.08 36.27c-.09.91 0 1.81-.09 2.71-.06.58.85.57.9 0 .09-.91 0-1.81.09-2.71.06-.58-.85-.57-.9 0zM7.13 41.18a8.42 8.42 0 0 1 .18 2.1.45.45 0 0 0 .9 0 9.41 9.41 0 0 0-.22-2.34.45.45 0 0 0-.87.24zM7.82 45.66a.45.45 0 0 0 0-.9.45.45 0 0 0 0 .9zM7.72 47.35a24.34 24.34 0 0 0 .28 3.2c.08.57.95.33.87-.24a22.52 22.52 0 0 1-.25-3 .45.45 0 0 0-.9 0zM8.2 52.41c.24 1.19.34 2.41.69 3.58a.45.45 0 0 0 .87-.24c-.35-1.17-.45-2.39-.69-3.58-.12-.57-1-.33-.87.24zM9.38 57.89a.45.45 0 0 0 0-.9.45.45 0 0 0 0 .9zM9.22 59.56a27.07 27.07 0 0 1 .76 3.36c.1.57 1 .33.87-.24a27.07 27.07 0 0 0-.76-3.36.45.45 0 0 0-.87.24zM43.06 63.25c1.56 0 3.12.15 4.68.16a.45.45 0 0 0 0-.9c-1.56 0-3.12-.15-4.68-.16a.45.45 0 0 0 0 .9zM49.76 63.48l2 .12c.58 0 .58-.87 0-.9l-2-.12c-.58 0-.58.87 0 .9zM53.97 63.67c1.48 0 3 .19 4.44.2a.45.45 0 0 0 0-.9c-1.48 0-3-.19-4.44-.2a.45.45 0 0 0 0 .9zM60.49 64.11h1.16a.45.45 0 0 0 0-.9h-1.16a.45.45 0 0 0 0 .9zM63.92 63.32a.45.45 0 0 0 0 .9H64a.45.45 0 0 0 0-.9h-.08a.45.45 0 0 0 0 .9.45.45 0 0 0 0-.9zM65.84 64.46a28.53 28.53 0 0 0 3 .12.45.45 0 0 0 0-.9 28.53 28.53 0 0 1-3-.12c-.58-.06-.57.84 0 .9zM70.55 64.81a31.39 31.39 0 0 0 5.73-.25c.57-.1.33-1-.24-.87a30.17 30.17 0 0 1-5.49.22.45.45 0 0 0 0 .9zM58.8 37.1c-.84-1.31-1.57-2.7-2.41-4a.453.453 0 0 0-.78.46c.84 1.32 1.57 2.7 2.41 4a.453.453 0 0 0 .78-.46zM55.35 31.35l-1-1.74a.453.453 0 0 0-.78.46l1 1.74a.453.453 0 0 0 .78-.46zM53.22 27.71c-.8-1.25-1.45-2.59-2.25-3.84a.453.453 0 0 0-.78.46c.8 1.25 1.45 2.59 2.25 3.84a.453.453 0 0 0 .78-.46zM50.04 22.01l-.63-1a.453.453 0 0 0-.78.46l.63 1a.453.453 0 0 0 .78-.46zM47.49 19.52l.78-.46v-.07a.453.453 0 0 0-.78.46v.07a.453.453 0 0 0 .78-.46.453.453 0 0 0-.78.46zM47.43 17.33a27.78 27.78 0 0 0-1.51-2.54.453.453 0 0 0-.78.46 27.78 27.78 0 0 1 1.51 2.54c.26.52 1 .06.78-.46zM45.16 13.18a30.94 30.94 0 0 0-3.32-4.68.453.453 0 0 0-.64.64 29.71 29.71 0 0 1 3.18 4.49.453.453 0 0 0 .78-.46zM9.61 35.01c1.09 1.12 2.08 2.33 3.17 3.44a.453.453 0 0 0 .64-.64c-1.09-1.12-2.08-2.33-3.17-3.44a.453.453 0 0 0-.64.64zM14.14 39.95l1.32 1.51c.38.44 1-.2.64-.64l-1.32-1.51c-.38-.44-1 .2-.64.64zM16.96 43.08c1 1.06 1.94 2.24 3 3.31a.453.453 0 0 0 .64-.64c-1-1.06-1.94-2.24-3-3.31a.453.453 0 0 0-.64.64zM21.22 48.03l.81.83a.453.453 0 0 0 .64-.64l-.81-.83a.453.453 0 0 0-.64.64zM24.18 49.89l-.64.64.06.06a.453.453 0 0 0 .64-.64l-.06-.06a.453.453 0 0 0-.64.64.453.453 0 0 0 .64-.64zM24.72 52.09a28.11 28.11 0 0 0 2 2.19.453.453 0 0 0 .64-.64 28.11 28.11 0 0 1-2-2.19c-.36-.45-1 .19-.64.64zM27.78 55.69a30.7 30.7 0 0 0 4.2 3.91c.48.33.93-.45.46-.78a29.56 29.56 0 0 1-4-3.77.453.453 0 0 0-.64.64z" fill="#333"/>
    <path d="M37.24 55.59a5.46 5.46 0 0 0-1.14.33 5.33 5.33 0 0 0-1.15.34 5.16 5.16 0 0 0-1 .73 5.48 5.48 0 0 0-.72 1 6 6 0 0 0-.53 1.06 6.51 6.51 0 0 0-.39 1.12 23.22 23.22 0 0 0-.16 2.37 6.24 6.24 0 0 0 .35 1.14 5.6 5.6 0 0 0 .41 1.12 4.93 4.93 0 0 0 .79.89 4.51 4.51 0 0 0 .93.72 4.72 4.72 0 0 0 1.07.49 9.73 9.73 0 0 0 1.13.25 7.47 7.47 0 0 0 1.15.07 6.63 6.63 0 0 0 1.17 0 5 5 0 0 0 1.09-.41 4.8 4.8 0 0 0 1-.52 4.87 4.87 0 0 0 .81-.85 5.39 5.39 0 0 0 .62-1 6.16 6.16 0 0 0 .36-1.1 6.82 6.82 0 0 0 .24-1.13 7.26 7.26 0 0 0 0-1.16 7.15 7.15 0 0 0-.19-1.14 6.66 6.66 0 0 0-.36-1.09 6.2 6.2 0 0 0-.44-1.08 5.36 5.36 0 0 0-.79-.87 4.79 4.79 0 0 0-.94-.69 4.72 4.72 0 0 0-1.09-.39 5.07 5.07 0 0 0-1.13-.28 6.38 6.38 0 0 0-1.09.08z" fill="#6cbae8"/>
    <path d="M37 54.72c-1.91.45-3.44 1-4.5 2.77a8.31 8.31 0 0 0-1.21 5c.39 3.84 4 5.91 7.62 5.63 8-.64 6.51-14.32-1.67-13.42-1.14.13-1.15 1.93 0 1.8 6.16-.68 7.22 9.49 1.08 9.8-2.73.14-5.14-1.53-5.23-4.4s1.65-4.79 4.39-5.43a.907.907 0 0 0-.48-1.75z" fill="#333"/>
    <path d="M6.02 23.89a5.51 5.51 0 0 0-1.16.28 5.24 5.24 0 0 0-1.13.38 5.14 5.14 0 0 0-1 .72 5.46 5.46 0 0 0-.69 1 6 6 0 0 0-.61 1 6.56 6.56 0 0 0-.32 1.14 5.35 5.35 0 0 0-.2 2.36 6.29 6.29 0 0 0 .31 1.15 5.64 5.64 0 0 0 .44 1.11 5 5 0 0 0 .76.92 4.62 4.62 0 0 0 1 .66 4.71 4.71 0 0 0 1 .57 9.12 9.12 0 0 0 1.16.15 7.58 7.58 0 0 0 1.14.11 6.41 6.41 0 0 0 1.16 0 5 5 0 0 0 1.09-.39 4.58 4.58 0 0 0 1-.58 4.76 4.76 0 0 0 .85-.78 5.32 5.32 0 0 0 .56-1 6 6 0 0 0 .4-1.07 6.81 6.81 0 0 0 .3-1.12 7.32 7.32 0 0 0-.13-2.32 6.8 6.8 0 0 0-.47-1.06 6.24 6.24 0 0 0-.42-1.09 5.37 5.37 0 0 0-.79-.87 3.44 3.44 0 0 0-2-1A5 5 0 0 0 7.14 24a5.93 5.93 0 0 0-1.12-.11z" fill="#6cbae8"/>
    <path d="M5.79 23.01a6.88 6.88 0 0 0-5.73 7.73c.49 3.89 3.89 5.91 7.62 5.59s5.65-4 5.37-7.32c-.33-4-3.24-6.08-7-6a.9.9 0 0 0 0 1.8c2.81 0 5.11 1.51 5.26 4.52.12 2.58-1.42 5.15-4.18 5.23s-5.18-1.44-5.29-4.39a5.14 5.14 0 0 1 4.45-5.4c1.11-.23.63-1.97-.5-1.76z" fill="#333"/>
    <path d="M4.9 67.24a5.56 5.56 0 0 0-.38 1.12 4.6 4.6 0 0 0-.11 2.37 5.53 5.53 0 0 0 .49 1.09 6.09 6.09 0 0 0 .59 1.07 6.69 6.69 0 0 0 .88.81 6.93 6.93 0 0 0 .89.79 6.77 6.77 0 0 0 1.09.49 6.23 6.23 0 0 0 1.12.38 5.57 5.57 0 0 0 1.18.14 5 5 0 0 0 1.18-.15 4.64 4.64 0 0 0 1.08-.5 4.76 4.76 0 0 0 .94-.72 9.54 9.54 0 0 0 .77-.86 8.13 8.13 0 0 0 .73-.9 6.07 6.07 0 0 0 .49-1.05 5.08 5.08 0 0 0 .27-1.13 4.69 4.69 0 0 0 0-1.16 4.8 4.8 0 0 0-.3-1.12 5.4 5.4 0 0 0-.5-1.05 6.22 6.22 0 0 0-.8-.84 6.85 6.85 0 0 0-.84-.81 7.33 7.33 0 0 0-1-.53 7.15 7.15 0 0 0-1.08-.39 6.81 6.81 0 0 0-1.11-.32 6 6 0 0 0-1.16 0 5.38 5.38 0 0 0-1.16.09 4.89 4.89 0 0 0-1 .59 4.53 4.53 0 0 0-.93.66 5.07 5.07 0 0 0-.73.89 6.15 6.15 0 0 0-.6 1.04z" fill="#fdba33"/>
    <path d="M4.04 67a6.6 6.6 0 0 0 3.49 8.62c3.59 1.64 7.22.13 8.9-3.44a6.25 6.25 0 0 0-3.45-8.34c-3.52-1.53-7.13-.7-8.84 2.94-.49 1 1.06 2 1.55.91a4.52 4.52 0 0 1 6.17-2.38c2.45 1 4.2 3.57 2.9 6.17-1.2 2.4-3.62 3.73-6.19 2.61a4.91 4.91 0 0 1-2.78-6.62c.41-1.07-1.3-1.58-1.75-.47z" fill="#333"/>
    <path d="M55.49 41.56a5.71 5.71 0 0 0-.43 1.11 5.67 5.67 0 0 0 0 2.36 5.4 5.4 0 0 0 .38 1.12 6 6 0 0 0 .68 1 6.69 6.69 0 0 0 .69 1 7 7 0 0 0 1 .71 6.85 6.85 0 0 0 1.05.57 6.28 6.28 0 0 0 1.16.29 5.62 5.62 0 0 0 1.18.18 5 5 0 0 0 1.16-.25 4.59 4.59 0 0 0 1.14-.35 5 5 0 0 0 .88-.81 9.9 9.9 0 0 0 .8-.83 8 8 0 0 0 .72-.91 5.83 5.83 0 0 0 .42-1.08 4.93 4.93 0 0 0 .27-1.11 2.83 2.83 0 0 0-.27-2.25 5.29 5.29 0 0 0-.48-1 6.11 6.11 0 0 0-.78-.85 6.71 6.71 0 0 0-.88-.74 7.12 7.12 0 0 0-1-.56 7.23 7.23 0 0 0-1-.51 6.82 6.82 0 0 0-1.13-.27 6 6 0 0 0-1.16 0 5.24 5.24 0 0 0-1.14.21 3.1 3.1 0 0 0-2 1.17 5.07 5.07 0 0 0-.76.87 6.32 6.32 0 0 0-.5.93z" fill="#99ca3c"/>
    <path d="M54.69 41.11a6.78 6.78 0 0 0 3.43 8.91 6.48 6.48 0 0 0 8.78-3.42c3.37-7.51-8.93-13.17-12.21-5.48-.45 1.05 1.1 2 1.55.91 2.4-5.63 11.47-1.66 9 3.78a4.71 4.71 0 0 1-5.61 2.88c-2.75-.77-4.61-4-3.41-6.66.5-1.06-1.05-1.98-1.53-.92z" fill="#333"/>
    <path d="M41.81 89.89a5.56 5.56 0 0 0 .83.86 5.24 5.24 0 0 0 .92.77 5.12 5.12 0 0 0 1.11.44 5.48 5.48 0 0 0 1.17.22 6.05 6.05 0 0 0 1.18-.12 6.46 6.46 0 0 0 1.14-.27 6.82 6.82 0 0 0 1.12-.39 6.7 6.7 0 0 0 1-.65 6.28 6.28 0 0 0 .91-.77 5.59 5.59 0 0 0 .7-1 4.92 4.92 0 0 0 .4-1.12 4.53 4.53 0 0 0 .12-1.17 4.67 4.67 0 0 0-.06-1.18 9.49 9.49 0 0 0-.38-1.1 7.68 7.68 0 0 0-.47-1.05 6 6 0 0 0-.67-.94 5.34 5.34 0 0 0-.77-.87 4.65 4.65 0 0 0-1-.51 4.86 4.86 0 0 0-1.1-.39 5.42 5.42 0 0 0-1.17 0 6.1 6.1 0 0 0-1.15.18 6.86 6.86 0 0 0-1.05.48 7.16 7.16 0 0 0-1 .51 7.29 7.29 0 0 0-1 .67 6.78 6.78 0 0 0-.7.92 5.88 5.88 0 0 0-.58 1 5.24 5.24 0 0 0-.47 1.05 4.73 4.73 0 0 0-.09 1.15 4.65 4.65 0 0 0 .06 1.16 5.48 5.48 0 0 0 .54 1 5.9 5.9 0 0 0 .46 1.12z" fill="#99ca3c"/>
    <path d="M41.17 90.56a6.84 6.84 0 0 0 9.55 1c3.08-2.25 3.23-6.14 1.14-9.17-2.21-3.21-6-3-9.07-1.1a7.22 7.22 0 0 0-2.87 4c-.49 1.93.21 3.43 1.11 5.08a.9.9 0 0 0 1.55-.91c-1.23-2.26-1.35-4.64.88-6.47 2-1.64 5-1.95 6.71.13s1.83 5.39-.6 7.05a5.11 5.11 0 0 1-7.13-.9c-.75-.86-2.02.42-1.27 1.29z" fill="#333"/>
    <path d="M27.13 35.4a5.58 5.58 0 0 0 .81.87 5 5 0 0 0 1 .67 5.11 5.11 0 0 0 1.06.55 5.44 5.44 0 0 0 1.18.15 6.11 6.11 0 0 0 1.19.07 6.71 6.71 0 0 0 1.15-.33 132 132 0 0 0 2.13-1 6.26 6.26 0 0 0 .8-.88 5.48 5.48 0 0 0 .71-.94 5 5 0 0 0 .53-1.07 4.71 4.71 0 0 0 .11-1.19 4.81 4.81 0 0 0-.09-1.19 9.59 9.59 0 0 0-.38-1.1 8.09 8.09 0 0 0-.44-1.08 6.27 6.27 0 0 0-.66-1 5 5 0 0 0-.94-.69 4.5 4.5 0 0 0-1-.56 4.69 4.69 0 0 0-1.09-.35 5.24 5.24 0 0 0-1.15 0 6 6 0 0 0-1.13.16 6.76 6.76 0 0 0-1.1.35 6.13 6.13 0 0 0-1.92 1.28 6.8 6.8 0 0 0-.8.84 6 6 0 0 0-.58 1 5.29 5.29 0 0 0-.44 1.07 4.78 4.78 0 0 0-.09 1.16 4.67 4.67 0 0 0 .08 1.16 5.26 5.26 0 0 0 .42 1.09 6.36 6.36 0 0 0 .64.96z" fill="#f15742"/>
    <path d="M26.49 36.03a6.92 6.92 0 0 0 9.59 1.08 6.61 6.61 0 0 0 1.08-9.44c-4.93-6.34-15.63 1.55-10.81 8.18.68.93 2.24 0 1.55-.91-3.69-5.06 4.67-10.91 8-5.87 3.59 5.38-4.22 10.4-8.17 5.69-.71-.87-1.98.39-1.24 1.27z" fill="#333"/>
    <path d="M79.96 69.24a5.48 5.48 0 0 0 1.15-.31 5 5 0 0 0 1.09-.44 5 5 0 0 0 .93-.73 5.55 5.55 0 0 0 .87-.82 6.16 6.16 0 0 0 .57-1.06 6.7 6.7 0 0 0 .33-1.15 6.9 6.9 0 0 0 .1-1.19 6.67 6.67 0 0 0-.08-1.18 6.36 6.36 0 0 0-.16-1.18 5.56 5.56 0 0 0-.56-1.05 4.81 4.81 0 0 0-.74-.92 4.48 4.48 0 0 0-.92-.72 4.7 4.7 0 0 0-1.06-.54 9.45 9.45 0 0 0-1.14-.21 7.68 7.68 0 0 0-1.15-.11 6.31 6.31 0 0 0-1.16 0 5.25 5.25 0 0 0-1.13.3 4.63 4.63 0 0 0-.93.71 4.83 4.83 0 0 0-.9.73 5.38 5.38 0 0 0-.54 1 6.14 6.14 0 0 0-.51 1 6.94 6.94 0 0 0-.14 1.16 11 11 0 0 0 .18 2.3 6.83 6.83 0 0 0 .29 1.12 6.12 6.12 0 0 0 .54 1 5.3 5.3 0 0 0 .81.83 3.57 3.57 0 0 0 2 1.13 5.07 5.07 0 0 0 1.13.25 6.28 6.28 0 0 0 1.13.08z" fill="#f15742"/>
    <path d="M80.2 70.11a6.74 6.74 0 0 0 5.62-7.74c-.38-3.86-3.83-5.9-7.52-5.62s-5.61 3.94-5.28 7.32c.36 3.72 3.08 6.42 6.94 6.06 1.14-.11 1.15-1.91 0-1.8-6.25.57-7.11-9.7-1.08-9.8 2.82 0 5 1.49 5.21 4.42s-1.61 4.84-4.37 5.42c-1.13.24-.65 1.97.48 1.74z" fill="#333"/>
    <path d="M81.15 25.89a5.66 5.66 0 0 0 .37-1.14 5.08 5.08 0 0 0 .1-1.19 5 5 0 0 0-.2-1.16 5.37 5.37 0 0 0-.33-1.13 6.06 6.06 0 0 0-.58-1 6.69 6.69 0 0 0-.79-.9 7 7 0 0 0-1-.64 6.84 6.84 0 0 0-1-.63 6.35 6.35 0 0 0-1.14-.36 5.57 5.57 0 0 0-1.19 0 4.91 4.91 0 0 0-1.19.09 4.65 4.65 0 0 0-1.06.53 4.72 4.72 0 0 0-1 .62 9.92 9.92 0 0 0-.79.86 7.22 7.22 0 0 0-.57 1 6.56 6.56 0 0 0-.61 1 5.18 5.18 0 0 0-.27 1.14 8.31 8.31 0 0 0 .4 2.26 5.27 5.27 0 0 0 .49 1 6.08 6.08 0 0 0 .76.86 6.8 6.8 0 0 0 .84.8 3.62 3.62 0 0 0 2.11.92 6.93 6.93 0 0 0 1.1.37 6 6 0 0 0 1.16 0 5.19 5.19 0 0 0 1.13-.2 2.9 2.9 0 0 0 2-1.16 5.07 5.07 0 0 0 .76-.87 6.16 6.16 0 0 0 .5-1.07z" fill="#a366a2"/>
    <path d="M82.02 26.12c1.41-3.64-.5-7.21-3.86-8.85-3.56-1.73-7.11.58-8.67 3.79-1.47 3 .51 7 3.49 8.26 3.54 1.54 7.19.52 8.95-3 .52-1-1-1.95-1.55-.91a4.42 4.42 0 0 1-5.68 2.5c-2.65-.78-4.69-3.41-3.52-6.2 2.6-6.18 11.39-2 9.1 3.91-.42 1.1 1.32 1.57 1.74.5z" fill="#333"/>
    <path d="M44.16 3.18a5.44 5.44 0 0 0-.87-.82 5.25 5.25 0 0 0-.88-.8 5.06 5.06 0 0 0-1.11-.42 5.55 5.55 0 0 0-1.16-.31 6.15 6.15 0 0 0-1.19.12 6.67 6.67 0 0 0-1.18.17 7 7 0 0 0-1.08.51 6.86 6.86 0 0 0-1 .6 6.34 6.34 0 0 0-.87.83 5.58 5.58 0 0 0-.66 1 4.88 4.88 0 0 0-.43 1.11 4.54 4.54 0 0 0-.17 1.17 4.76 4.76 0 0 0 .09 1.19 10.12 10.12 0 0 0 .32 1.12 7.18 7.18 0 0 0 .61 1 6.54 6.54 0 0 0 .56 1 5 5 0 0 0 .89.74 4.8 4.8 0 0 0 1 .66 4.86 4.86 0 0 0 1.13.28 5.43 5.43 0 0 0 1.17.09 6.23 6.23 0 0 0 1.14-.24 6.88 6.88 0 0 0 1.09-.39 5.19 5.19 0 0 0 1.92-1.29 6.76 6.76 0 0 0 .75-.89 6.12 6.12 0 0 0 .67-.95 5.32 5.32 0 0 0 .35-1.11 4.73 4.73 0 0 0 .09-1.15 4.59 4.59 0 0 0-.14-1.14 5.08 5.08 0 0 0-.39-1.09 6.15 6.15 0 0 0-.65-.99z" fill="#fdba33"/>
    <path d="M44.8 2.54c-2.66-2.8-6.32-3.46-9.6-1.09s-3.12 6.44-1 9.41 6.07 3 8.89 1.1a6.5 6.5 0 0 0 1.86-9.24c-.64-1-2.2-.06-1.55.91 3.42 5.14-4.4 11-7.92 5.81a4.63 4.63 0 0 1 1.15-6.76c2.49-1.58 5-.9 6.91 1.13a.9.9 0 0 0 1.26-1.27z" fill="#333"/>
</symbol></svg>