<svg id="Layer_1" data-name="Layer 1" xmlns="http://www.w3.org/2000/svg" viewBox="0 0 85.87 93.05"><title>icon_network</title><path d="M414.29,186.29c0,0.4.07,0.79,0.06,1.18s-0.13.79-.15,1.17,0,0.79,0,1.17-0.09.78-.12,1.17,0,0.79-.07,1.17-0.11.78-.17,1.16-0.1.78-.16,1.16-0.07.79-.14,1.17-0.17.77-.26,1.15-0.27.74-.37,1.12-0.08.8-.19,1.17-0.32.72-.46,1.09-0.32.72-.46,1.08-0.24.75-.4,1.1-0.27.74-.45,1.09-0.43.66-.62,1-0.36.69-.57,1-0.49.61-.71,0.94-0.44.64-.67,1-0.43.64-.67,0.95-0.43.65-.67,0.95-0.56.54-.81,0.84-0.42.66-.68,1-0.53.56-.8,0.85-0.52.57-.8,0.85-0.64.46-.92,0.72-0.52.58-.81,0.84l-0.87.77c-0.29.25-.55,0.56-0.85,0.8s-0.68.39-1,.63-0.55.56-.87,0.79-0.65.43-1,.65-0.71.33-1,.54-0.63.46-1,.66-0.65.43-1,.61-0.71.35-1.05,0.53-0.67.42-1,.59-0.73.29-1.09,0.45l-1.07.48c-0.36.15-.75,0.23-1.11,0.38s-0.71.33-1.08,0.46-0.71.33-1.09,0.45-0.78.12-1.16,0.23-0.73.28-1.12,0.37-0.78.09-1.16,0.17-0.74.26-1.13,0.33-0.78.08-1.17,0.14-0.77.16-1.16,0.2-0.78,0-1.18,0-0.78,0-1.17,0-0.78.11-1.17,0.11-0.78,0-1.18,0l-1.17-.07c-0.39,0-.77-0.15-1.16-0.19l-1.17-.12c-0.39,0-.78-0.08-1.16-0.13l-1.16-.17c-0.39-.07-0.76-0.17-1.15-0.25s-0.78-.09-1.16-0.18-0.77-.14-1.15-0.23-0.76-.23-1.13-0.33-0.74-.26-1.12-0.37-0.73-.28-1.1-0.4-0.79-.11-1.16-0.23-0.71-.34-1.07-0.48l-1.09-.43c-0.35-.15-0.72-0.26-1.07-0.41s-0.67-.37-1-0.53-0.71-.28-1.05-0.45-0.65-.4-1-0.58-0.7-.32-1-0.51-0.68-.34-1-0.54-0.66-.39-1-0.6-0.59-.5-0.9-0.71-0.66-.39-1-0.62-0.64-.42-0.94-0.66-0.55-.54-0.84-0.78-0.57-.51-0.85-0.76-0.63-.44-0.9-0.71-0.49-.59-0.76-0.86-0.58-.5-0.83-0.79-0.54-.54-0.79-0.83-0.41-.64-0.65-0.95-0.53-.55-0.75-0.86-0.34-.69-0.55-1-0.5-.59-0.69-0.92-0.27-.72-0.45-1.06-0.44-.63-0.61-1-0.31-.7-0.47-1-0.32-.69-0.47-1-0.27-.71-0.42-1.06-0.36-.68-0.5-1-0.2-.74-0.33-1.1-0.27-.71-0.39-1.07-0.29-.71-0.4-1.08-0.23-.73-0.32-1.11-0.07-.77-0.16-1.15-0.19-.74-0.27-1.12-0.13-.76-0.19-1.14-0.18-.75-0.23-1.13,0-.77-0.08-1.15,0-.77-0.08-1.15-0.1-.76-0.13-1.15-0.09-.77-0.11-1.15,0-.77-0.05-1.16,0-.77,0-1.15-0.06-.77-0.06-1.15,0.09-.77.1-1.16-0.08-.78-0.06-1.16,0-.78.08-1.16,0.08-.77.12-1.16,0.2-.76.26-1.14,0.09-.77.16-1.15,0.14-.76.22-1.14,0.14-.76.23-1.14,0.28-.73.38-1.1,0.18-.75.3-1.12,0.16-.76.29-1.13,0.28-.72.42-1.08,0.35-.69.5-1,0.28-.72.44-1.07,0.36-.69.53-1,0.28-.73.47-1.07,0.43-.65.62-1,0.42-.65.63-1,0.37-.68.59-1,0.45-.63.68-0.94,0.42-.65.65-1,0.52-.57.76-0.88,0.38-.68.63-1,0.56-.54.82-0.83,0.51-.59.78-0.86,0.52-.58.8-0.85,0.6-.49.89-0.75,0.57-.53.87-0.77,0.63-.45.94-0.68,0.6-.5.91-0.72,0.61-.49.93-0.7,0.67-.39,1-0.59,0.68-.36,1-0.55,0.66-.41,1-0.59,0.67-.39,1-0.56,0.74-.25,1.09-0.41,0.69-.36,1-0.51,0.73-.27,1.09-0.41,0.71-.33,1.07-0.46,0.74-.22,1.11-0.34,0.75-.21,1.12-0.32l1.12-.31c0.37-.1.74-0.23,1.12-0.32s0.77-.11,1.15-0.19,0.74-.26,1.13-0.32,0.77-.09,1.16-0.15,0.78,0,1.17,0,0.76-.21,1.14-0.25,0.78-.05,1.16-0.08,0.78,0,1.17,0,0.78,0,1.17,0,0.77-.16,1.16-0.16,0.78,0.12,1.16.12h1.16c0.39,0,.78,0,1.16,0s0.77,0.07,1.16.09,0.77,0.07,1.16.09,0.78-.07,1.17,0,0.76,0.2,1.14.25,0.77,0.07,1.15.13,0.77,0.1,1.14.18,0.78,0.08,1.15.18,0.72,0.31,1.08.43,0.72,0.28,1.08.41,0.73,0.21,1.08.35,0.68,0.35,1,.51,0.72,0.26,1.06.43,0.64,0.41,1,.59,0.72,0.26,1.05.45,0.6,0.48.92,0.68,0.67,0.37,1,.58,0.68,0.36,1,.58,0.58,0.5.88,0.73,0.63,0.43.93,0.66,0.59,0.49.88,0.73,0.56,0.52.84,0.77l0.85,0.76c0.28,0.26.58,0.49,0.85,0.76s0.57,0.51.83,0.79,0.44,0.63.7,0.91,0.48,0.59.73,0.88,0.53,0.55.77,0.84,0.51,0.57.74,0.86,0.48,0.59.71,0.89,0.39,0.65.61,1,0.48,0.59.69,0.89,0.49,0.58.7,0.89,0.34,0.68.54,1,0.44,0.61.63,0.94,0.37,0.65.55,1,0.32,0.68.48,1,0.4,0.64.55,1,0.25,0.71.38,1.06,0.23,0.7.34,1.06,0.21,0.71.31,1.07,0.12,0.73.21,1.1,0.29,0.69.37,1.06,0.11,0.73.17,1.1,0.15,0.73.21,1.1,0,0.75.08,1.12,0,0.74.08,1.11,0.14,0.74.17,1.11,0,0.75.07,1.12,0.06,0.74.07,1.11,0.11,0.75.12,1.12,0,0.75,0,1.11S414.29,185.92,414.29,186.29Z" transform="translate(-332.51 -139.11)" fill="#fff"/><path d="M414.29,186.29c0,0.4.07,0.79,0.06,1.18s-0.13.79-.15,1.17,0,0.79,0,1.17-0.09.78-.12,1.17,0,0.79-.07,1.17-0.11.78-.17,1.16-0.1.78-.16,1.16-0.07.79-.14,1.17-0.17.77-.26,1.15-0.27.74-.37,1.12-0.08.8-.19,1.17-0.32.72-.46,1.09-0.32.72-.46,1.08-0.24.75-.4,1.1-0.27.74-.45,1.09-0.43.66-.62,1-0.36.69-.57,1-0.49.61-.71,0.94-0.44.64-.67,1-0.43.64-.67,0.95-0.43.65-.67,0.95-0.56.54-.81,0.84-0.42.66-.68,1-0.53.56-.8,0.85-0.52.57-.8,0.85-0.64.46-.92,0.72-0.52.58-.81,0.84l-0.87.77c-0.29.25-.55,0.56-0.85,0.8s-0.68.39-1,.63-0.55.56-.87,0.79-0.65.43-1,.65-0.71.33-1,.54-0.63.46-1,.66-0.65.43-1,.61-0.71.35-1.05,0.53-0.67.42-1,.59-0.73.29-1.09,0.45l-1.07.48c-0.36.15-.75,0.23-1.11,0.38s-0.71.33-1.08,0.46-0.71.33-1.09,0.45-0.78.12-1.16,0.23-0.73.28-1.12,0.37-0.78.09-1.16,0.17-0.74.26-1.13,0.33-0.78.08-1.17,0.14-0.77.16-1.16,0.2-0.78,0-1.18,0-0.78,0-1.17,0-0.78.11-1.17,0.11-0.78,0-1.18,0l-1.17-.07c-0.39,0-.77-0.15-1.16-0.19l-1.17-.12c-0.39,0-.78-0.08-1.16-0.13l-1.16-.17c-0.39-.07-0.76-0.17-1.15-0.25s-0.78-.09-1.16-0.18-0.77-.14-1.15-0.23-0.76-.23-1.13-0.33-0.74-.26-1.12-0.37-0.73-.28-1.1-0.4-0.79-.11-1.16-0.23-0.71-.34-1.07-0.48l-1.09-.43c-0.35-.15-0.72-0.26-1.07-0.41s-0.67-.37-1-0.53-0.71-.28-1.05-0.45-0.65-.4-1-0.58-0.7-.32-1-0.51-0.68-.34-1-0.54-0.66-.39-1-0.6-0.59-.5-0.9-0.71-0.66-.39-1-0.62-0.64-.42-0.94-0.66-0.55-.54-0.84-0.78-0.57-.51-0.85-0.76-0.63-.44-0.9-0.71-0.49-.59-0.76-0.86-0.58-.5-0.83-0.79-0.54-.54-0.79-0.83-0.41-.64-0.65-0.95-0.53-.55-0.75-0.86-0.34-.69-0.55-1-0.5-.59-0.69-0.92-0.27-.72-0.45-1.06-0.44-.63-0.61-1-0.31-.7-0.47-1-0.32-.69-0.47-1-0.27-.71-0.42-1.06-0.36-.68-0.5-1-0.2-.74-0.33-1.1-0.27-.71-0.39-1.07-0.29-.71-0.4-1.08-0.23-.73-0.32-1.11-0.07-.77-0.16-1.15-0.19-.74-0.27-1.12-0.13-.76-0.19-1.14-0.18-.75-0.23-1.13,0-.77-0.08-1.15,0-.77-0.08-1.15-0.1-.76-0.13-1.15-0.09-.77-0.11-1.15,0-.77-0.05-1.16,0-.77,0-1.15-0.06-.77-0.06-1.15,0.09-.77.1-1.16-0.08-.78-0.06-1.16,0-.78.08-1.16,0.08-.77.12-1.16,0.2-.76.26-1.14,0.09-.77.16-1.15,0.14-.76.22-1.14,0.14-.76.23-1.14,0.28-.73.38-1.1,0.18-.75.3-1.12,0.16-.76.29-1.13,0.28-.72.42-1.08,0.35-.69.5-1,0.28-.72.44-1.07,0.36-.69.53-1,0.28-.73.47-1.07,0.43-.65.62-1,0.42-.65.63-1,0.37-.68.59-1,0.45-.63.68-0.94,0.42-.65.65-1,0.52-.57.76-0.88,0.38-.68.63-1,0.56-.54.82-0.83,0.51-.59.78-0.86,0.52-.58.8-0.85,0.6-.49.89-0.75,0.57-.53.87-0.77,0.63-.45.94-0.68,0.6-.5.91-0.72,0.61-.49.93-0.7,0.67-.39,1-0.59,0.68-.36,1-0.55,0.66-.41,1-0.59,0.67-.39,1-0.56,0.74-.25,1.09-0.41,0.69-.36,1-0.51,0.73-.27,1.09-0.41,0.71-.33,1.07-0.46,0.74-.22,1.11-0.34,0.75-.21,1.12-0.32l1.12-.31c0.37-.1.74-0.23,1.12-0.32s0.77-.11,1.15-0.19,0.74-.26,1.13-0.32,0.77-.09,1.16-0.15,0.78,0,1.17,0,0.76-.21,1.14-0.25,0.78-.05,1.16-0.08,0.78,0,1.17,0,0.78,0,1.17,0,0.77-.16,1.16-0.16,0.78,0.12,1.16.12h1.16c0.39,0,.78,0,1.16,0s0.77,0.07,1.16.09,0.77,0.07,1.16.09,0.78-.07,1.17,0,0.76,0.2,1.14.25,0.77,0.07,1.15.13,0.77,0.1,1.14.18,0.78,0.08,1.15.18,0.72,0.31,1.08.43,0.72,0.28,1.08.41,0.73,0.21,1.08.35,0.68,0.35,1,.51,0.72,0.26,1.06.43,0.64,0.41,1,.59,0.72,0.26,1.05.45,0.6,0.48.92,0.68,0.67,0.37,1,.58,0.68,0.36,1,.58,0.58,0.5.88,0.73,0.63,0.43.93,0.66,0.59,0.49.88,0.73,0.56,0.52.84,0.77l0.85,0.76c0.28,0.26.58,0.49,0.85,0.76s0.57,0.51.83,0.79,0.44,0.63.7,0.91,0.48,0.59.73,0.88,0.53,0.55.77,0.84,0.51,0.57.74,0.86,0.48,0.59.71,0.89,0.39,0.65.61,1,0.48,0.59.69,0.89,0.49,0.58.7,0.89,0.34,0.68.54,1,0.44,0.61.63,0.94,0.37,0.65.55,1,0.32,0.68.48,1,0.4,0.64.55,1,0.25,0.71.38,1.06,0.23,0.7.34,1.06,0.21,0.71.31,1.07,0.12,0.73.21,1.1,0.29,0.69.37,1.06,0.11,0.73.17,1.1,0.15,0.73.21,1.1,0,0.75.08,1.12,0,0.74.08,1.11,0.14,0.74.17,1.11,0,0.75.07,1.12,0.06,0.74.07,1.11,0.11,0.75.12,1.12,0,0.75,0,1.11S414.29,185.92,414.29,186.29Z" transform="translate(-332.51 -139.11)" fill="none" stroke="#333" stroke-linecap="round" stroke-linejoin="round" stroke-width="1.25"/><path d="M393.12,181.73c-0.74-.53-1.57-0.91-2.31-1.44-0.47-.34-0.92.44-0.46,0.78,0.74,0.53,1.56.91,2.31,1.44,0.47,0.34.92-.44,0.46-0.78h0Z" transform="translate(-332.51 -139.11)" fill="#333"/><path d="M388.84,179.32a8.29,8.29,0,0,1-1.91-.89,0.45,0.45,0,0,0-.46.78,9.23,9.23,0,0,0,2.13,1,0.45,0.45,0,0,0,.24-0.87h0Z" transform="translate(-332.51 -139.11)" fill="#333"/><path d="M385,178.36a0.45,0.45,0,0,0,0-.9,0.45,0.45,0,0,0,0,.9h0Z" transform="translate(-332.51 -139.11)" fill="#333"/><path d="M383.2,176.74a24.09,24.09,0,0,0-2.9-1.35c-0.54-.22-0.77.65-0.24,0.87a22.31,22.31,0,0,1,2.69,1.26,0.45,0.45,0,0,0,.46-0.78h0Z" transform="translate(-332.51 -139.11)" fill="#333"/><path d="M378.59,174.63c-1.15-.38-2.26-0.92-3.45-1.19a0.45,0.45,0,0,0-.24.87c1.19,0.27,2.29.81,3.45,1.19,0.55,0.18.79-.69,0.24-0.87h0Z" transform="translate(-332.51 -139.11)" fill="#333"/><path d="M373.63,173.59a0.45,0.45,0,0,0,0-.9,0.45,0.45,0,0,0,0,.9h0Z" transform="translate(-332.51 -139.11)" fill="#333"/><path d="M371.88,171.94a27.08,27.08,0,0,1-3.3-1c-0.55-.2-0.78.67-0.24,0.87a27.08,27.08,0,0,0,3.3,1c0.57,0.13.81-.74,0.24-0.87h0Z" transform="translate(-332.51 -139.11)" fill="#333"/><path d="M369.69,202.61c0.83-.37,1.58-0.88,2.41-1.25,0.53-.23.07-1-0.46-0.78-0.83.37-1.58,0.88-2.41,1.25-0.53.23-.07,1,0.46,0.78h0Z" transform="translate(-332.51 -139.11)" fill="#333"/><path d="M373.93,200.16a8.51,8.51,0,0,1,1.74-1.19,0.45,0.45,0,0,0-.46-0.78,9.45,9.45,0,0,0-1.93,1.33,0.45,0.45,0,0,0,.64.64h0Z" transform="translate(-332.51 -139.11)" fill="#333"/><path d="M377.1,198a0.45,0.45,0,0,0,0-.9,0.45,0.45,0,0,0,0,.9h0Z" transform="translate(-332.51 -139.11)" fill="#333"/><path d="M379,196.62a23.06,23.06,0,0,0,2.55-1.74c0.46-.35,0-1.13-0.46-0.78a23.06,23.06,0,0,1-2.55,1.74,0.45,0.45,0,0,0,.46.78h0Z" transform="translate(-332.51 -139.11)" fill="#333"/><path d="M383.2,193.73c0.92-.8,1.95-1.47,2.78-2.36a0.45,0.45,0,0,0-.64-0.64c-0.84.88-1.87,1.56-2.78,2.36-0.44.38,0.2,1,.64,0.64h0Z" transform="translate(-332.51 -139.11)" fill="#333"/><path d="M387,190.68a0.45,0.45,0,0,0,0-.9,0.45,0.45,0,0,0,0,.9h0Z" transform="translate(-332.51 -139.11)" fill="#333"/><path d="M388.94,189.33A27.11,27.11,0,0,1,391.5,187c0.45-.37-0.19-1-0.64-0.64a27.11,27.11,0,0,0-2.56,2.31,0.45,0.45,0,0,0,.64.64h0Z" transform="translate(-332.51 -139.11)" fill="#333"/><path d="M365.2,172.85c-0.06.91,0.06,1.81,0,2.72,0,0.58.87,0.58,0.9,0,0.06-.91-0.06-1.81,0-2.72,0-.58-0.87-0.58-0.9,0h0Z" transform="translate(-332.51 -139.11)" fill="#333"/><path d="M365.42,177.75a8.42,8.42,0,0,1,.26,2.09,0.45,0.45,0,0,0,.9,0,9.44,9.44,0,0,0-.29-2.33,0.45,0.45,0,0,0-.87.24h0Z" transform="translate(-332.51 -139.11)" fill="#333"/><path d="M366.25,182.22a0.45,0.45,0,0,0,0-.9,0.45,0.45,0,0,0,0,.9h0Z" transform="translate(-332.51 -139.11)" fill="#333"/><path d="M366.22,183.9a23.94,23.94,0,0,0,.38,3.18c0.1,0.57,1,.33.87-0.24a22.12,22.12,0,0,1-.35-2.94,0.45,0.45,0,0,0-.9,0h0Z" transform="translate(-332.51 -139.11)" fill="#333"/><path d="M366.87,188.94c0.28,1.18.42,2.4,0.81,3.55,0.19,0.55,1.06.31,0.87-.24-0.4-1.15-.53-2.37-0.81-3.55a0.45,0.45,0,0,0-.87.24h0Z" transform="translate(-332.51 -139.11)" fill="#333"/><path d="M368.23,194.39a0.45,0.45,0,0,0,0-.9,0.45,0.45,0,0,0,0,.9h0Z" transform="translate(-332.51 -139.11)" fill="#333"/><path d="M368.13,196.06a27.36,27.36,0,0,1,.88,3.34c0.12,0.57,1,.33.87-0.24a27.36,27.36,0,0,0-.88-3.34c-0.19-.54-1.06-0.31-0.87.24h0Z" transform="translate(-332.51 -139.11)" fill="#333"/><path d="M348.74,206.7a24,24,0,0,1,2.45-.75,0.45,0.45,0,0,0-.24-0.87,24,24,0,0,0-2.45.75c-0.54.2-.31,1.07,0.24,0.87h0Z" transform="translate(-332.51 -139.11)" fill="#333"/><path d="M353.54,205.52a18.58,18.58,0,0,1,3.18-.84c0.57-.07.58-1,0-0.9a19.79,19.79,0,0,0-3.42.87,0.45,0.45,0,0,0,.24.87h0Z" transform="translate(-332.51 -139.11)" fill="#333"/><path d="M361,203.56a12.33,12.33,0,0,1,3.39-1c0.57-.07.58-1,0-0.9a13.79,13.79,0,0,0-3.84,1.1c-0.53.23-.07,1,0.46,0.78h0Z" transform="translate(-332.51 -139.11)" fill="#333"/><path d="M358.53,204.26a0.45,0.45,0,0,0,0-.9,0.45,0.45,0,0,0,0,.9h0Z" transform="translate(-332.51 -139.11)" fill="#333"/><path d="M372.32,206.51a25,25,0,0,0,1,2.5c0.23,0.53,1,.07.78-0.46a22.82,22.82,0,0,1-.87-2.29,0.45,0.45,0,0,0-.87.24h0Z" transform="translate(-332.51 -139.11)" fill="#333"/><path d="M374.34,211a19.91,19.91,0,0,0,1.4,3.24,0.45,0.45,0,0,0,.78-0.46,18.55,18.55,0,0,1-1.3-3c-0.2-.54-1.08-0.3-0.87.24h0Z" transform="translate(-332.51 -139.11)" fill="#333"/><path d="M377.33,218a13.46,13.46,0,0,0,1.44,3.6,0.45,0.45,0,0,0,.78-0.46,12.59,12.59,0,0,1-1.35-3.38,0.45,0.45,0,0,0-.87.24h0Z" transform="translate(-332.51 -139.11)" fill="#333"/><path d="M376.9,216.17a0.45,0.45,0,0,0,0-.9,0.45,0.45,0,0,0,0,.9h0Z" transform="translate(-332.51 -139.11)" fill="#333"/><path d="M406.59,199.35a23.93,23.93,0,0,1-1.79-1.83c-0.39-.43-1,0.21-0.64.64A23.93,23.93,0,0,0,406,200a0.45,0.45,0,0,0,.64-0.64h0Z" transform="translate(-332.51 -139.11)" fill="#333"/><path d="M403.33,195.64a18.31,18.31,0,0,1-2.21-2.44c-0.32-.48-1.11,0-0.78.46a19.52,19.52,0,0,0,2.35,2.63,0.45,0.45,0,0,0,.64-0.64h0Z" transform="translate(-332.51 -139.11)" fill="#333"/><path d="M398.23,190a12.47,12.47,0,0,1-2.52-2.63c-0.32-.48-1.11,0-0.78.46a13.2,13.2,0,0,0,2.66,2.81c0.45,0.36,1.09-.27.64-0.64h0Z" transform="translate(-332.51 -139.11)" fill="#333"/><path d="M399.51,192.47a0.45,0.45,0,0,0,0-.9,0.45,0.45,0,0,0,0,.9h0Z" transform="translate(-332.51 -139.11)" fill="#333"/><path d="M395.53,178.53a24.17,24.17,0,0,0,1.7-1.92c0.36-.45-0.27-1.09-0.64-0.64a24.17,24.17,0,0,1-1.7,1.92,0.45,0.45,0,0,0,.64.64h0Z" transform="translate(-332.51 -139.11)" fill="#333"/><path d="M398.6,174.66a19.7,19.7,0,0,0,2.22-2.74,0.45,0.45,0,0,0-.78-0.46A18.4,18.4,0,0,1,398,174c-0.38.43,0.25,1.07,0.64,0.64h0Z" transform="translate(-332.51 -139.11)" fill="#333"/><path d="M403.41,168.78a13.27,13.27,0,0,0,2.52-2.94,0.45,0.45,0,0,0-.78-0.46,12.47,12.47,0,0,1-2.38,2.76c-0.43.39,0.21,1,.64,0.64h0Z" transform="translate(-332.51 -139.11)" fill="#333"/><path d="M401.58,170.68a0.45,0.45,0,0,0,0-.9,0.45,0.45,0,0,0,0,.9h0Z" transform="translate(-332.51 -139.11)" fill="#333"/><path d="M370.51,151.75a23.69,23.69,0,0,1-.58,2.5,0.45,0.45,0,0,0,.87.24,23.69,23.69,0,0,0,.58-2.5c0.1-.57-0.77-0.81-0.87-0.24h0Z" transform="translate(-332.51 -139.11)" fill="#333"/><path d="M369.12,156.49a18.54,18.54,0,0,1-.87,3.18c-0.23.53,0.55,1,.78,0.46a19.69,19.69,0,0,0,1-3.39,0.45,0.45,0,0,0-.87-0.24h0Z" transform="translate(-332.51 -139.11)" fill="#333"/><path d="M367.07,163.93a12.34,12.34,0,0,1-.85,3.42c-0.23.53,0.55,1,.78,0.46a13.81,13.81,0,0,0,1-3.87c0.07-.58-0.84-0.57-0.9,0h0Z" transform="translate(-332.51 -139.11)" fill="#333"/><path d="M368.09,162.12a0.45,0.45,0,0,0,0-.9,0.45,0.45,0,0,0,0,.9h0Z" transform="translate(-332.51 -139.11)" fill="#333"/><path d="M358.85,172.26a25.18,25.18,0,0,0-2.65-.43c-0.58-.07-0.57.84,0,0.9a22.91,22.91,0,0,1,2.41.4,0.45,0.45,0,0,0,.24-0.87h0Z" transform="translate(-332.51 -139.11)" fill="#333"/><path d="M353.94,171.73a20.09,20.09,0,0,0-3.51-.42,0.45,0.45,0,0,0,0,.9,18.68,18.68,0,0,1,3.27.39c0.57,0.09.81-.78,0.24-0.87h0Z" transform="translate(-332.51 -139.11)" fill="#333"/><path d="M346.39,170.82a13.55,13.55,0,0,0-3.84-.56,0.45,0.45,0,0,0,0,.9,12.64,12.64,0,0,1,3.6.53,0.45,0.45,0,0,0,.24-0.87h0Z" transform="translate(-332.51 -139.11)" fill="#333"/><path d="M348.58,172a0.45,0.45,0,0,0,0-.9,0.45,0.45,0,0,0,0,.9h0Z" transform="translate(-332.51 -139.11)" fill="#333"/><path d="M348.54,211.43c0.74,0.53,1.57.91,2.31,1.44,0.47,0.34.92-.44,0.46-0.78-0.74-.53-1.56-0.91-2.31-1.44-0.47-.34-0.92.44-0.46,0.78h0Z" transform="translate(-332.51 -139.11)" fill="#333"/><path d="M352.82,213.84a8.33,8.33,0,0,1,1.91.89,0.45,0.45,0,0,0,.46-0.78,9.29,9.29,0,0,0-2.13-1,0.45,0.45,0,0,0-.24.87h0Z" transform="translate(-332.51 -139.11)" fill="#333"/><path d="M356.66,215.71a0.45,0.45,0,0,0,0-.9,0.45,0.45,0,0,0,0,.9h0Z" transform="translate(-332.51 -139.11)" fill="#333"/><path d="M358.46,216.42a24.11,24.11,0,0,0,2.9,1.36c0.54,0.22.77-.65,0.24-0.87a22.34,22.34,0,0,1-2.69-1.26,0.45,0.45,0,0,0-.46.78h0Z" transform="translate(-332.51 -139.11)" fill="#333"/><path d="M363.08,218.53c1.15,0.38,2.26.92,3.44,1.19a0.45,0.45,0,0,0,.24-0.87c-1.19-.27-2.29-0.81-3.44-1.19-0.55-.18-0.79.69-0.24,0.87h0Z" transform="translate(-332.51 -139.11)" fill="#333"/><path d="M368,220.47a0.45,0.45,0,0,0,0-.9,0.45,0.45,0,0,0,0,.9h0Z" transform="translate(-332.51 -139.11)" fill="#333"/><path d="M369.78,221.22a27.25,27.25,0,0,1,3.3,1c0.55,0.2.78-.67,0.24-0.87a27.25,27.25,0,0,0-3.3-1c-0.57-.13-0.81.74-0.24,0.87h0Z" transform="translate(-332.51 -139.11)" fill="#333"/><path d="M384.25,221.7c0.83-.38,1.57-0.9,2.4-1.28,0.53-.24.07-1-0.46-0.78-0.83.38-1.57,0.9-2.4,1.28-0.53.24-.07,1,0.46,0.78h0Z" transform="translate(-332.51 -139.11)" fill="#333"/><path d="M388.47,219.2A8.36,8.36,0,0,1,390.2,218a0.45,0.45,0,0,0-.46-0.78,9.29,9.29,0,0,0-1.91,1.35,0.45,0.45,0,0,0,.64.64h0Z" transform="translate(-332.51 -139.11)" fill="#333"/><path d="M391.61,217a0.45,0.45,0,0,0,0-.9,0.45,0.45,0,0,0,0,.9h0Z" transform="translate(-332.51 -139.11)" fill="#333"/><path d="M393.53,215.61a23.75,23.75,0,0,0,2.62-1.84c0.46-.35-0.18-1-0.64-0.64a22,22,0,0,1-2.44,1.7,0.45,0.45,0,0,0,.46.78h0Z" transform="translate(-332.51 -139.11)" fill="#333"/><path d="M397.66,212.66c0.91-.81,1.93-1.49,2.75-2.39a0.45,0.45,0,0,0-.64-0.64c-0.83.89-1.85,1.58-2.75,2.39-0.43.39,0.21,1,.64,0.64h0Z" transform="translate(-332.51 -139.11)" fill="#333"/><path d="M401.43,209.57a0.45,0.45,0,0,0,0-.9,0.45,0.45,0,0,0,0,.9h0Z" transform="translate(-332.51 -139.11)" fill="#333"/><path d="M403.35,208.2a26.63,26.63,0,0,1,2.53-2.34c0.44-.38-0.2-1-0.64-0.64a26.63,26.63,0,0,0-2.53,2.34,0.45,0.45,0,0,0,.64.64h0Z" transform="translate(-332.51 -139.11)" fill="#333"/><path d="M411,195.92c0.09-.91,0-1.81.09-2.71,0.06-.58-0.85-0.57-0.9,0-0.09.91,0,1.81-.09,2.71-0.06.58,0.85,0.57,0.9,0h0Z" transform="translate(-332.51 -139.11)" fill="#333"/><path d="M410.94,191a8.43,8.43,0,0,1-.18-2.1,0.45,0.45,0,0,0-.9,0,9.41,9.41,0,0,0,.22,2.34,0.45,0.45,0,0,0,.87-0.24h0Z" transform="translate(-332.51 -139.11)" fill="#333"/><path d="M410.25,187.43a0.45,0.45,0,0,0,0-.9,0.45,0.45,0,0,0,0,.9h0Z" transform="translate(-332.51 -139.11)" fill="#333"/><path d="M410.35,184.83a24,24,0,0,0-.28-3.2c-0.08-.57-0.95-0.33-0.87.24a22.21,22.21,0,0,1,.25,3,0.45,0.45,0,0,0,.9,0h0Z" transform="translate(-332.51 -139.11)" fill="#333"/><path d="M409.87,179.78c-0.24-1.19-.34-2.41-0.69-3.58a0.45,0.45,0,0,0-.87.24c0.36,1.17.45,2.39,0.69,3.58,0.12,0.57,1,.33.87-0.24h0Z" transform="translate(-332.51 -139.11)" fill="#333"/><path d="M408.69,175.2a0.45,0.45,0,0,0,0-.9,0.45,0.45,0,0,0,0,.9h0Z" transform="translate(-332.51 -139.11)" fill="#333"/><path d="M408.85,172.62a27.2,27.2,0,0,1-.76-3.36c-0.1-.57-1-0.33-0.87.24a27.2,27.2,0,0,0,.76,3.36,0.45,0.45,0,0,0,.87-0.24h0Z" transform="translate(-332.51 -139.11)" fill="#333"/><path d="M402,159.87c-0.74-.53-1.57-0.91-2.31-1.44-0.47-.34-0.92.44-0.46,0.78,0.74,0.53,1.56.91,2.31,1.44,0.47,0.34.92-.44,0.46-0.78h0Z" transform="translate(-332.51 -139.11)" fill="#333"/><path d="M397.76,157.46a8.45,8.45,0,0,1-1.91-.89,0.45,0.45,0,0,0-.46.78,9.41,9.41,0,0,0,2.13,1,0.45,0.45,0,0,0,.24-0.87h0Z" transform="translate(-332.51 -139.11)" fill="#333"/><path d="M393.92,156.49a0.45,0.45,0,0,0,0-.9,0.45,0.45,0,0,0,0,.9h0Z" transform="translate(-332.51 -139.11)" fill="#333"/><path d="M392.12,154.88a24.26,24.26,0,0,0-2.9-1.35c-0.54-.22-0.77.65-0.24,0.87a22.47,22.47,0,0,1,2.69,1.26,0.45,0.45,0,0,0,.46-0.78h0Z" transform="translate(-332.51 -139.11)" fill="#333"/><path d="M387.5,152.77c-1.15-.38-2.26-0.92-3.45-1.19a0.45,0.45,0,0,0-.24.87c1.19,0.27,2.29.81,3.45,1.19,0.55,0.18.79-.69,0.24-0.87h0Z" transform="translate(-332.51 -139.11)" fill="#333"/><path d="M382.55,151.73a0.45,0.45,0,0,0,0-.9,0.45,0.45,0,0,0,0,.9h0Z" transform="translate(-332.51 -139.11)" fill="#333"/><path d="M380.8,150.08a27.08,27.08,0,0,1-3.29-1c-0.55-.2-0.78.67-0.24,0.87a27.08,27.08,0,0,0,3.29,1c0.57,0.13.81-.74,0.24-0.87h0Z" transform="translate(-332.51 -139.11)" fill="#333"/><path d="M366.33,149.59c-0.83.38-1.57,0.9-2.4,1.28-0.53.24-.07,1,0.46,0.78,0.83-.38,1.57-0.9,2.4-1.28,0.53-.24.07-1-0.46-0.78h0Z" transform="translate(-332.51 -139.11)" fill="#333"/><path d="M362.11,152.09a8.39,8.39,0,0,1-1.73,1.21,0.45,0.45,0,0,0,.46.78,9.32,9.32,0,0,0,1.91-1.35,0.45,0.45,0,0,0-.64-0.64h0Z" transform="translate(-332.51 -139.11)" fill="#333"/><path d="M359,155.16a0.45,0.45,0,0,0,0-.9,0.45,0.45,0,0,0,0,.9h0Z" transform="translate(-332.51 -139.11)" fill="#333"/><path d="M357.05,155.69a23.83,23.83,0,0,0-2.62,1.84c-0.46.35,0.18,1,.64,0.64a22.12,22.12,0,0,1,2.44-1.7,0.45,0.45,0,0,0-.46-0.78h0Z" transform="translate(-332.51 -139.11)" fill="#333"/><path d="M352.92,158.63c-0.91.81-1.93,1.49-2.75,2.39a0.45,0.45,0,0,0,.64.64c0.83-.89,1.85-1.58,2.75-2.39,0.43-.39-0.21-1-0.64-0.64h0Z" transform="translate(-332.51 -139.11)" fill="#333"/><path d="M349.15,162.63a0.45,0.45,0,0,0,0-.9,0.45,0.45,0,0,0,0,.9h0Z" transform="translate(-332.51 -139.11)" fill="#333"/><path d="M347.23,163.1a26.74,26.74,0,0,1-2.53,2.34c-0.44.38,0.2,1,.64,0.64a26.74,26.74,0,0,0,2.53-2.34,0.45,0.45,0,0,0-.64-0.64h0Z" transform="translate(-332.51 -139.11)" fill="#333"/><path d="M339.59,175.38c-0.09.91,0,1.81-.09,2.71-0.06.58,0.85,0.57,0.9,0,0.09-.91,0-1.81.09-2.71,0.06-.58-0.85-0.57-0.9,0h0Z" transform="translate(-332.51 -139.11)" fill="#333"/><path d="M339.64,180.29a8.42,8.42,0,0,1,.18,2.1,0.45,0.45,0,0,0,.9,0,9.41,9.41,0,0,0-.22-2.34,0.45,0.45,0,0,0-.87.24h0Z" transform="translate(-332.51 -139.11)" fill="#333"/><path d="M340.33,184.77a0.45,0.45,0,0,0,0-.9,0.45,0.45,0,0,0,0,.9h0Z" transform="translate(-332.51 -139.11)" fill="#333"/><path d="M340.23,186.46a24.34,24.34,0,0,0,.28,3.2c0.08,0.57.95,0.33,0.87-.24a22.52,22.52,0,0,1-.25-3,0.45,0.45,0,0,0-.9,0h0Z" transform="translate(-332.51 -139.11)" fill="#333"/><path d="M340.71,191.52c0.24,1.19.34,2.41,0.69,3.58a0.45,0.45,0,0,0,.87-0.24c-0.35-1.17-.45-2.39-0.69-3.58-0.12-.57-1-0.33-0.87.24h0Z" transform="translate(-332.51 -139.11)" fill="#333"/><path d="M341.89,197a0.45,0.45,0,0,0,0-.9,0.45,0.45,0,0,0,0,.9h0Z" transform="translate(-332.51 -139.11)" fill="#333"/><path d="M341.73,198.67a27.07,27.07,0,0,1,.76,3.36c0.1,0.57,1,.33.87-0.24a27.07,27.07,0,0,0-.76-3.36,0.45,0.45,0,0,0-.87.24h0Z" transform="translate(-332.51 -139.11)" fill="#333"/><path d="M375.57,202.36c1.56,0,3.12.15,4.68,0.16a0.45,0.45,0,0,0,0-.9c-1.56,0-3.12-.15-4.68-0.16a0.45,0.45,0,0,0,0,.9h0Z" transform="translate(-332.51 -139.11)" fill="#333"/><path d="M382.27,202.59l2,0.12c0.58,0,.58-0.87,0-0.9l-2-.12c-0.58,0-.58.87,0,0.9h0Z" transform="translate(-332.51 -139.11)" fill="#333"/><path d="M386.48,202.78c1.48,0,3,.19,4.44.2a0.45,0.45,0,0,0,0-.9c-1.48,0-3-.19-4.44-0.2a0.45,0.45,0,0,0,0,.9h0Z" transform="translate(-332.51 -139.11)" fill="#333"/><path d="M393,203.22h1.16a0.45,0.45,0,0,0,0-.9H393a0.45,0.45,0,0,0,0,.9h0Z" transform="translate(-332.51 -139.11)" fill="#333"/><path d="M396.43,202.43h0a0.45,0.45,0,0,0,0,.9h0.08a0.45,0.45,0,0,0,0-.9h-0.08a0.45,0.45,0,0,0,0,.9h0a0.45,0.45,0,0,0,0-.9h0Z" transform="translate(-332.51 -139.11)" fill="#333"/><path d="M398.35,203.57a28.53,28.53,0,0,0,3,.12,0.45,0.45,0,0,0,0-.9,28.53,28.53,0,0,1-3-.12c-0.58-.06-0.57.84,0,0.9h0Z" transform="translate(-332.51 -139.11)" fill="#333"/><path d="M403.06,203.92a31.39,31.39,0,0,0,5.73-.25c0.57-.1.33-1-0.24-0.87a30.17,30.17,0,0,1-5.49.22,0.45,0.45,0,0,0,0,.9h0Z" transform="translate(-332.51 -139.11)" fill="#333"/><path d="M391.31,176.21c-0.84-1.31-1.57-2.7-2.41-4a0.45,0.45,0,0,0-.78.46c0.84,1.32,1.57,2.7,2.41,4a0.45,0.45,0,0,0,.78-0.46h0Z" transform="translate(-332.51 -139.11)" fill="#333"/><path d="M387.86,170.46l-1-1.74a0.45,0.45,0,0,0-.78.46l1,1.74a0.45,0.45,0,0,0,.78-0.46h0Z" transform="translate(-332.51 -139.11)" fill="#333"/><path d="M385.73,166.82c-0.8-1.25-1.45-2.59-2.25-3.84a0.45,0.45,0,0,0-.78.46c0.8,1.25,1.45,2.59,2.25,3.84a0.45,0.45,0,0,0,.78-0.46h0Z" transform="translate(-332.51 -139.11)" fill="#333"/><path d="M382.55,161.12l-0.63-1a0.45,0.45,0,0,0-.78.46l0.63,1a0.45,0.45,0,0,0,.78-0.46h0Z" transform="translate(-332.51 -139.11)" fill="#333"/><path d="M380,158.63h0l0.78-.46,0-.07a0.45,0.45,0,0,0-.78.46l0,0.07a0.45,0.45,0,0,0,.78-0.46h0a0.45,0.45,0,0,0-.78.46h0Z" transform="translate(-332.51 -139.11)" fill="#333"/><path d="M379.94,156.44a27.78,27.78,0,0,0-1.51-2.54,0.45,0.45,0,0,0-.78.46,27.78,27.78,0,0,1,1.51,2.54c0.26,0.52,1,.06.78-0.46h0Z" transform="translate(-332.51 -139.11)" fill="#333"/><path d="M377.67,152.29a30.94,30.94,0,0,0-3.32-4.68,0.45,0.45,0,0,0-.64.64,29.71,29.71,0,0,1,3.18,4.49,0.45,0.45,0,0,0,.78-0.46h0Z" transform="translate(-332.51 -139.11)" fill="#333"/><path d="M342.12,174.12c1.09,1.12,2.08,2.33,3.17,3.44a0.45,0.45,0,0,0,.64-0.64c-1.09-1.12-2.08-2.33-3.17-3.44a0.45,0.45,0,0,0-.64.64h0Z" transform="translate(-332.51 -139.11)" fill="#333"/><path d="M346.65,179.06l1.32,1.51c0.38,0.44,1-.2.64-0.64l-1.32-1.51c-0.38-.44-1,0.2-0.64.64h0Z" transform="translate(-332.51 -139.11)" fill="#333"/><path d="M349.47,182.19c1,1.06,1.94,2.24,3,3.31a0.45,0.45,0,0,0,.64-0.64c-1-1.06-1.94-2.24-3-3.31a0.45,0.45,0,0,0-.64.64h0Z" transform="translate(-332.51 -139.11)" fill="#333"/><path d="M353.73,187.14l0.81,0.83a0.45,0.45,0,0,0,.64-0.64l-0.81-.83a0.45,0.45,0,0,0-.64.64h0Z" transform="translate(-332.51 -139.11)" fill="#333"/><path d="M356.69,189h0l-0.64.64,0.06,0.06a0.45,0.45,0,0,0,.64-0.64l-0.06-.06a0.45,0.45,0,0,0-.64.64h0a0.45,0.45,0,0,0,.64-0.64h0Z" transform="translate(-332.51 -139.11)" fill="#333"/><path d="M357.23,191.2a28.11,28.11,0,0,0,2,2.19,0.45,0.45,0,0,0,.64-0.64,28.11,28.11,0,0,1-2-2.19c-0.36-.45-1,0.19-0.64.64h0Z" transform="translate(-332.51 -139.11)" fill="#333"/><path d="M360.29,194.8a30.7,30.7,0,0,0,4.2,3.91c0.48,0.33.93-.45,0.46-0.78a29.56,29.56,0,0,1-4-3.77,0.45,0.45,0,0,0-.64.64h0Z" transform="translate(-332.51 -139.11)" fill="#333"/><path d="M369.75,194.7a5.46,5.46,0,0,0-1.14.33,5.33,5.33,0,0,0-1.15.34,5.16,5.16,0,0,0-1,.73,5.48,5.48,0,0,0-.72,1,6,6,0,0,0-.53,1.06,6.51,6.51,0,0,0-.39,1.12,23.22,23.22,0,0,0-.16,2.37,6.24,6.24,0,0,0,.35,1.14,5.6,5.6,0,0,0,.41,1.12,4.93,4.93,0,0,0,.79.89,4.51,4.51,0,0,0,.93.72,4.72,4.72,0,0,0,1.07.49,9.73,9.73,0,0,0,1.13.25,7.47,7.47,0,0,0,1.15.07,6.63,6.63,0,0,0,1.17,0,5,5,0,0,0,1.09-.41,4.8,4.8,0,0,0,1-.52,4.87,4.87,0,0,0,.81-0.85,5.39,5.39,0,0,0,.62-1,6.16,6.16,0,0,0,.36-1.1,6.82,6.82,0,0,0,.24-1.13,7.26,7.26,0,0,0,0-1.16,7.15,7.15,0,0,0-.19-1.14,6.66,6.66,0,0,0-.36-1.09,6.2,6.2,0,0,0-.44-1.08,5.36,5.36,0,0,0-.79-0.87,4.79,4.79,0,0,0-.94-0.69,4.72,4.72,0,0,0-1.09-.39,5.07,5.07,0,0,0-1.13-.28A6.38,6.38,0,0,0,369.75,194.7Z" transform="translate(-332.51 -139.11)" fill="#6cbae8"/><path d="M369.51,193.83c-1.91.45-3.44,1-4.5,2.77a8.31,8.31,0,0,0-1.21,5c0.39,3.84,4,5.91,7.62,5.63,8-.64,6.51-14.32-1.67-13.42-1.14.13-1.15,1.93,0,1.8,6.16-.68,7.22,9.49,1.08,9.8-2.73.14-5.14-1.53-5.23-4.4s1.65-4.79,4.39-5.43A0.9,0.9,0,0,0,369.51,193.83Z" transform="translate(-332.51 -139.11)" fill="#333"/><path d="M338.53,163a5.51,5.51,0,0,0-1.16.28,5.24,5.24,0,0,0-1.13.38,5.14,5.14,0,0,0-1,.72,5.46,5.46,0,0,0-.69,1,6,6,0,0,0-.61,1,6.56,6.56,0,0,0-.32,1.14,5.35,5.35,0,0,0-.2,2.36,6.29,6.29,0,0,0,.31,1.15,5.64,5.64,0,0,0,.44,1.11,5,5,0,0,0,.76.92,4.62,4.62,0,0,0,1,.66,4.71,4.71,0,0,0,1,.57,9.12,9.12,0,0,0,1.16.15,7.58,7.58,0,0,0,1.14.11,6.41,6.41,0,0,0,1.16,0,5,5,0,0,0,1.09-.39,4.58,4.58,0,0,0,1-.58,4.76,4.76,0,0,0,.85-0.78,5.32,5.32,0,0,0,.56-1,6,6,0,0,0,.4-1.07,6.81,6.81,0,0,0,.3-1.12,7.32,7.32,0,0,0-.13-2.32,6.8,6.8,0,0,0-.47-1.06,6.24,6.24,0,0,0-.42-1.09,5.37,5.37,0,0,0-.79-0.87,3.44,3.44,0,0,0-2-1,5,5,0,0,0-1.13-.16A5.93,5.93,0,0,0,338.53,163Z" transform="translate(-332.51 -139.11)" fill="#6cbae8"/><path d="M338.3,162.12a6.88,6.88,0,0,0-5.73,7.73c0.49,3.89,3.89,5.91,7.62,5.59s5.65-4,5.37-7.32c-0.33-4-3.24-6.08-7-6a0.9,0.9,0,0,0,0,1.8c2.81,0,5.11,1.51,5.26,4.52,0.12,2.58-1.42,5.15-4.18,5.23s-5.18-1.44-5.29-4.39a5.14,5.14,0,0,1,4.45-5.4C339.91,163.65,339.43,161.91,338.3,162.12Z" transform="translate(-332.51 -139.11)" fill="#333"/><path d="M337.41,206.35a5.56,5.56,0,0,0-.38,1.12,4.6,4.6,0,0,0-.11,2.37,5.53,5.53,0,0,0,.49,1.09A6.09,6.09,0,0,0,338,212a6.69,6.69,0,0,0,.88.81,6.93,6.93,0,0,0,.89.79,6.77,6.77,0,0,0,1.09.49,6.23,6.23,0,0,0,1.12.38,5.57,5.57,0,0,0,1.18.14,5,5,0,0,0,1.18-.15,4.64,4.64,0,0,0,1.08-.5,4.76,4.76,0,0,0,.94-0.72,9.54,9.54,0,0,0,.77-0.86,8.13,8.13,0,0,0,.73-0.9,6.07,6.07,0,0,0,.49-1.05,5.08,5.08,0,0,0,.27-1.13,4.69,4.69,0,0,0,0-1.16,4.8,4.8,0,0,0-.3-1.12,5.4,5.4,0,0,0-.5-1.05,6.22,6.22,0,0,0-.8-0.84,6.85,6.85,0,0,0-.84-0.81,7.33,7.33,0,0,0-1-.53,7.15,7.15,0,0,0-1.08-.39,6.81,6.81,0,0,0-1.11-.32,6,6,0,0,0-1.16,0,5.38,5.38,0,0,0-1.16.09,4.89,4.89,0,0,0-1,.59,4.53,4.53,0,0,0-.93.66,5.07,5.07,0,0,0-.73.89A6.15,6.15,0,0,0,337.41,206.35Z" transform="translate(-332.51 -139.11)" fill="#fdba33"/><path d="M336.55,206.11a6.6,6.6,0,0,0,3.49,8.62c3.59,1.64,7.22.13,8.9-3.44a6.25,6.25,0,0,0-3.45-8.34c-3.52-1.53-7.13-.7-8.84,2.94-0.49,1,1.06,2,1.55.91a4.52,4.52,0,0,1,6.17-2.38c2.45,1,4.2,3.57,2.9,6.17-1.2,2.4-3.62,3.73-6.19,2.61a4.91,4.91,0,0,1-2.78-6.62C338.71,205.51,337,205,336.55,206.11Z" transform="translate(-332.51 -139.11)" fill="#333"/><path d="M388,180.67a5.71,5.71,0,0,0-.43,1.11,5.67,5.67,0,0,0,0,2.36,5.4,5.4,0,0,0,.38,1.12,6,6,0,0,0,.68,1,6.69,6.69,0,0,0,.69,1,7,7,0,0,0,1,.71,6.85,6.85,0,0,0,1.05.57,6.28,6.28,0,0,0,1.16.29,5.62,5.62,0,0,0,1.18.18,5,5,0,0,0,1.16-.25,4.59,4.59,0,0,0,1.14-.35,5,5,0,0,0,.88-0.81,9.9,9.9,0,0,0,.8-0.83,8,8,0,0,0,.72-0.91,5.83,5.83,0,0,0,.42-1.08,4.93,4.93,0,0,0,.27-1.11,2.83,2.83,0,0,0-.27-2.25,5.29,5.29,0,0,0-.48-1,6.11,6.11,0,0,0-.78-0.85,6.71,6.71,0,0,0-.88-0.74,7.12,7.12,0,0,0-1-.56,7.23,7.23,0,0,0-1-.51,6.82,6.82,0,0,0-1.13-.27,6,6,0,0,0-1.16,0,5.24,5.24,0,0,0-1.14.21,3.1,3.1,0,0,0-2,1.17,5.07,5.07,0,0,0-.76.87A6.32,6.32,0,0,0,388,180.67Z" transform="translate(-332.51 -139.11)" fill="#99ca3c"/><path d="M387.2,180.22a6.78,6.78,0,0,0,3.43,8.91,6.48,6.48,0,0,0,8.78-3.42c3.37-7.51-8.93-13.17-12.21-5.48-0.45,1.05,1.1,2,1.55.91,2.4-5.63,11.47-1.66,9,3.78a4.71,4.71,0,0,1-5.61,2.88c-2.75-.77-4.61-4-3.41-6.66C389.23,180.08,387.68,179.16,387.2,180.22Z" transform="translate(-332.51 -139.11)" fill="#333"/><path d="M374.32,229a5.56,5.56,0,0,0,.83.86,5.24,5.24,0,0,0,.92.77,5.12,5.12,0,0,0,1.11.44,5.48,5.48,0,0,0,1.17.22,6.05,6.05,0,0,0,1.18-.12,6.46,6.46,0,0,0,1.14-.27,6.82,6.82,0,0,0,1.12-.39,6.7,6.7,0,0,0,1-.65,6.28,6.28,0,0,0,.91-0.77,5.59,5.59,0,0,0,.7-1,4.92,4.92,0,0,0,.4-1.12,4.53,4.53,0,0,0,.12-1.17,4.67,4.67,0,0,0-.06-1.18,9.49,9.49,0,0,0-.38-1.1,7.68,7.68,0,0,0-.47-1.05,6,6,0,0,0-.67-0.94,5.34,5.34,0,0,0-.77-0.87,4.65,4.65,0,0,0-1-.51,4.86,4.86,0,0,0-1.1-.39,5.42,5.42,0,0,0-1.17,0,6.1,6.1,0,0,0-1.15.18,6.86,6.86,0,0,0-1.05.48,7.16,7.16,0,0,0-1,.51,7.29,7.29,0,0,0-1,.67,6.78,6.78,0,0,0-.7.92,5.88,5.88,0,0,0-.58,1,5.24,5.24,0,0,0-.47,1.05,4.73,4.73,0,0,0-.09,1.15,4.65,4.65,0,0,0,.06,1.16,5.48,5.48,0,0,0,.54,1A5.9,5.9,0,0,0,374.32,229Z" transform="translate(-332.51 -139.11)" fill="#99ca3c"/><path d="M373.68,229.67a6.84,6.84,0,0,0,9.55,1c3.08-2.25,3.23-6.14,1.14-9.17-2.21-3.21-6-3-9.07-1.1a7.22,7.22,0,0,0-2.87,4c-0.49,1.93.21,3.43,1.11,5.08a0.9,0.9,0,0,0,1.55-.91c-1.23-2.26-1.35-4.64.88-6.47,2-1.64,5-1.95,6.71.13s1.83,5.39-.6,7.05a5.11,5.11,0,0,1-7.13-.9C374.2,227.52,372.93,228.8,373.68,229.67Z" transform="translate(-332.51 -139.11)" fill="#333"/><path d="M359.64,174.51a5.58,5.58,0,0,0,.81.87,5,5,0,0,0,1,.67,5.11,5.11,0,0,0,1.06.55,5.44,5.44,0,0,0,1.18.15,6.11,6.11,0,0,0,1.19.07,6.71,6.71,0,0,0,1.15-.33,132,132,0,0,0,2.13-1,6.26,6.26,0,0,0,.8-0.88,5.48,5.48,0,0,0,.71-0.94,5,5,0,0,0,.53-1.07,4.71,4.71,0,0,0,.11-1.19,4.81,4.81,0,0,0-.09-1.19,9.59,9.59,0,0,0-.38-1.1,8.09,8.09,0,0,0-.44-1.08,6.27,6.27,0,0,0-.66-1,5,5,0,0,0-.94-0.69,4.5,4.5,0,0,0-1-.56,4.69,4.69,0,0,0-1.09-.35,5.24,5.24,0,0,0-1.15,0,6,6,0,0,0-1.13.16,6.76,6.76,0,0,0-1.1.35,6.13,6.13,0,0,0-1.92,1.28,6.8,6.8,0,0,0-.8.84,6,6,0,0,0-.58,1,5.29,5.29,0,0,0-.44,1.07,4.78,4.78,0,0,0-.09,1.16,4.67,4.67,0,0,0,.08,1.16,5.26,5.26,0,0,0,.42,1.09A6.36,6.36,0,0,0,359.64,174.51Z" transform="translate(-332.51 -139.11)" fill="#f15742"/><path d="M359,175.14a6.92,6.92,0,0,0,9.59,1.08,6.61,6.61,0,0,0,1.08-9.44c-4.93-6.34-15.63,1.55-10.81,8.18,0.68,0.93,2.24,0,1.55-.91-3.69-5.06,4.67-10.91,8-5.87,3.59,5.38-4.22,10.4-8.17,5.69C359.53,173,358.26,174.26,359,175.14Z" transform="translate(-332.51 -139.11)" fill="#333"/><path d="M412.47,208.35a5.48,5.48,0,0,0,1.15-.31,5,5,0,0,0,1.09-.44,5,5,0,0,0,.93-0.73,5.55,5.55,0,0,0,.87-0.82,6.16,6.16,0,0,0,.57-1.06,6.7,6.7,0,0,0,.33-1.15,6.9,6.9,0,0,0,.1-1.19,6.67,6.67,0,0,0-.08-1.18,6.36,6.36,0,0,0-.16-1.18,5.56,5.56,0,0,0-.56-1.05,4.81,4.81,0,0,0-.74-0.92,4.48,4.48,0,0,0-.92-0.72,4.7,4.7,0,0,0-1.06-.54,9.45,9.45,0,0,0-1.14-.21,7.68,7.68,0,0,0-1.15-.11,6.31,6.31,0,0,0-1.16,0,5.25,5.25,0,0,0-1.13.3,4.63,4.63,0,0,0-.93.71,4.83,4.83,0,0,0-.9.73,5.38,5.38,0,0,0-.54,1,6.14,6.14,0,0,0-.51,1,6.94,6.94,0,0,0-.14,1.16,11,11,0,0,0,.18,2.3,6.83,6.83,0,0,0,.29,1.12,6.12,6.12,0,0,0,.54,1,5.3,5.3,0,0,0,.81.83,3.57,3.57,0,0,0,2,1.13,5.07,5.07,0,0,0,1.13.25A6.28,6.28,0,0,0,412.47,208.35Z" transform="translate(-332.51 -139.11)" fill="#f15742"/><path d="M412.71,209.22a6.74,6.74,0,0,0,5.62-7.74c-0.38-3.86-3.83-5.9-7.52-5.62s-5.61,3.94-5.28,7.32c0.36,3.72,3.08,6.42,6.94,6.06,1.14-.11,1.15-1.91,0-1.8-6.25.57-7.11-9.7-1.08-9.8,2.82,0,5,1.49,5.21,4.42s-1.61,4.84-4.37,5.42C411.1,207.72,411.58,209.45,412.71,209.22Z" transform="translate(-332.51 -139.11)" fill="#333"/><path d="M413.66,165a5.66,5.66,0,0,0,.37-1.14,5.08,5.08,0,0,0,.1-1.19,5,5,0,0,0-.2-1.16,5.37,5.37,0,0,0-.33-1.13,6.06,6.06,0,0,0-.58-1,6.69,6.69,0,0,0-.79-0.9,7,7,0,0,0-1-.64,6.84,6.84,0,0,0-1-.63,6.35,6.35,0,0,0-1.14-.36,5.57,5.57,0,0,0-1.19,0,4.91,4.91,0,0,0-1.19.09,4.65,4.65,0,0,0-1.06.53,4.72,4.72,0,0,0-1,.62,9.92,9.92,0,0,0-.79.86,7.22,7.22,0,0,0-.57,1,6.56,6.56,0,0,0-.61,1,5.18,5.18,0,0,0-.27,1.14,8.31,8.31,0,0,0,.4,2.26,5.27,5.27,0,0,0,.49,1,6.08,6.08,0,0,0,.76.86,6.8,6.8,0,0,0,.84.8,3.62,3.62,0,0,0,2.11.92,6.93,6.93,0,0,0,1.1.37,6,6,0,0,0,1.16,0,5.19,5.19,0,0,0,1.13-.2,2.9,2.9,0,0,0,2-1.16,5.07,5.07,0,0,0,.76-0.87A6.16,6.16,0,0,0,413.66,165Z" transform="translate(-332.51 -139.11)" fill="#a366a2"/><path d="M414.53,165.23c1.41-3.64-.5-7.21-3.86-8.85-3.56-1.73-7.11.58-8.67,3.79-1.47,3,.51,7,3.49,8.26,3.54,1.54,7.19.52,8.95-3,0.52-1-1-1.95-1.55-.91a4.42,4.42,0,0,1-5.68,2.5c-2.65-.78-4.69-3.41-3.52-6.2,2.6-6.18,11.39-2,9.1,3.91C412.37,165.83,414.11,166.3,414.53,165.23Z" transform="translate(-332.51 -139.11)" fill="#333"/><path d="M376.67,142.29a5.44,5.44,0,0,0-.87-0.82,5.25,5.25,0,0,0-.88-0.8,5.06,5.06,0,0,0-1.11-.42,5.55,5.55,0,0,0-1.16-.31,6.15,6.15,0,0,0-1.19.12,6.67,6.67,0,0,0-1.18.17,7,7,0,0,0-1.08.51,6.86,6.86,0,0,0-1,.6,6.34,6.34,0,0,0-.87.83,5.58,5.58,0,0,0-.66,1,4.88,4.88,0,0,0-.43,1.11,4.54,4.54,0,0,0-.17,1.17,4.76,4.76,0,0,0,.09,1.19,10.12,10.12,0,0,0,.32,1.12,7.18,7.18,0,0,0,.61,1,6.54,6.54,0,0,0,.56,1,5,5,0,0,0,.89.74,4.8,4.8,0,0,0,1,.66,4.86,4.86,0,0,0,1.13.28,5.43,5.43,0,0,0,1.17.09,6.23,6.23,0,0,0,1.14-.24,6.88,6.88,0,0,0,1.09-.39,5.19,5.19,0,0,0,1.92-1.29,6.76,6.76,0,0,0,.75-0.89,6.12,6.12,0,0,0,.67-0.95,5.32,5.32,0,0,0,.35-1.11,4.73,4.73,0,0,0,.09-1.15,4.59,4.59,0,0,0-.14-1.14,5.08,5.08,0,0,0-.39-1.09A6.15,6.15,0,0,0,376.67,142.29Z" transform="translate(-332.51 -139.11)" fill="#fdba33"/><path d="M377.31,141.65c-2.66-2.8-6.32-3.46-9.6-1.09s-3.12,6.44-1,9.41,6.07,3,8.89,1.1a6.5,6.5,0,0,0,1.86-9.24c-0.64-1-2.2-.06-1.55.91,3.42,5.14-4.4,11-7.92,5.81a4.63,4.63,0,0,1,1.15-6.76c2.49-1.58,5-.9,6.91,1.13A0.9,0.9,0,0,0,377.31,141.65Z" transform="translate(-332.51 -139.11)" fill="#333"/></svg>