<svg id="Layer_1" data-name="Layer 1" xmlns="http://www.w3.org/2000/svg" viewBox="0 0 25.93 25.93"><defs><style>.cls-1{fill:#999;}</style></defs><title>icon_facebook</title><path id="White" class="cls-1" d="M737.69,381.83H714.62a1.43,1.43,0,0,0-1.43,1.43v23.06a1.43,1.43,0,0,0,1.43,1.43H727v-10h-3.38V393.8H727v-2.89c0-3.35,2-5.17,5-5.17a27.72,27.72,0,0,1,3,.15v3.5H733c-1.62,0-1.94.77-1.94,1.9v2.5H735l-0.5,3.91h-3.37v10h6.61a1.43,1.43,0,0,0,1.43-1.43V383.26A1.43,1.43,0,0,0,737.69,381.83Z" transform="translate(-713.19 -381.83)"/></svg>