<svg id="Layer_1" data-name="Layer 1" xmlns="http://www.w3.org/2000/svg" viewBox="0 0 23.28 23.28"><title>icon_sync</title><circle cx="11.64" cy="11.64" r="11.26" fill="#b5ddf3" stroke="#333" stroke-miterlimit="10" stroke-width="0.75"/><path d="M568.06,432.07a3.55,3.55,0,0,1,2.16,1.92c0,0.54-1.4,2.54-2,2.51s0.73-1.57.53-1.83a5.88,5.88,0,0,0-4,2,7.18,7.18,0,0,0-1.16,6.6,6.92,6.92,0,0,0,2.19,3,7,7,0,0,0,2.84,1.25c0.21,0,.17.69-0.05,0.69a7,7,0,0,1-5.38-3.82,8.54,8.54,0,0,1,.54-7.73c2-2.7,4.79-2.62,5-3S566.69,431.85,568.06,432.07Z" transform="translate(-558.46 -429.23)" fill="#333" fill-rule="evenodd"/><path d="M572.14,449.65a3.55,3.55,0,0,1-2.16-1.92c0-.54,1.4-2.54,2-2.51s-0.73,1.57-.53,1.83a5.88,5.88,0,0,0,4-2,7.18,7.18,0,0,0,1.16-6.6,6.91,6.91,0,0,0-2.19-3,7,7,0,0,0-2.84-1.25c-0.21,0-.17-0.69.06-0.69a7,7,0,0,1,5.38,3.82,8.54,8.54,0,0,1-.54,7.73c-2,2.7-4.79,2.62-5,3S573.51,449.87,572.14,449.65Z" transform="translate(-558.46 -429.23)" fill="#333" fill-rule="evenodd"/></svg>