<svg id="Layer_1" data-name="Layer 1" xmlns="http://www.w3.org/2000/svg" viewBox="0 0 30.23 24.57"><defs><style>.cls-1{fill:#999;}</style></defs><title>icon_twitter</title><path class="cls-1" d="M698.57,385.22a12.4,12.4,0,0,1-3.56,1,6.22,6.22,0,0,0,2.73-3.43,12.42,12.42,0,0,1-3.94,1.51,6.21,6.21,0,0,0-10.57,5.66,17.61,17.61,0,0,1-12.79-6.48,6.21,6.21,0,0,0,1.92,8.28,6.18,6.18,0,0,1-2.81-.78V391a6.21,6.21,0,0,0,5,6.08,6.22,6.22,0,0,1-2.8.11,6.21,6.21,0,0,0,5.79,4.31,12.45,12.45,0,0,1-7.7,2.66,12.63,12.63,0,0,1-1.48-.09,17.56,17.56,0,0,0,9.51,2.79c11.41,0,17.65-9.45,17.65-17.65q0-.4,0-0.8A12.61,12.61,0,0,0,698.57,385.22Z" transform="translate(-668.33 -382.31)"/></svg>