<svg id="Layer_1" data-name="Layer 1" xmlns="http://www.w3.org/2000/svg" viewBox="0 0 25.26 25.26"><defs><style>.cls-1{fill:#999;}</style></defs><title>icon_linkedin</title><path class="cls-1" d="M647.84,381.83H626.31a1.84,1.84,0,0,0-1.86,1.82v21.62a1.84,1.84,0,0,0,1.86,1.82h21.53a1.85,1.85,0,0,0,1.87-1.82V383.65A1.85,1.85,0,0,0,647.84,381.83Zm-15.9,21.53h-3.75V391.3h3.75v12.06Zm-1.87-13.7a2.17,2.17,0,1,1,2.17-2.17A2.17,2.17,0,0,1,630.07,389.65ZM646,403.36h-3.74v-5.86c0-1.4,0-3.2-1.95-3.2s-2.25,1.52-2.25,3.09v6h-3.74V391.3h3.59v1.65h0.05a3.94,3.94,0,0,1,3.55-1.95c3.79,0,4.49,2.5,4.49,5.74v6.61Z" transform="translate(-624.45 -381.83)"/></svg>