<svg id="Layer_1" data-name="Layer 1" xmlns="http://www.w3.org/2000/svg" xmlns:xlink="http://www.w3.org/1999/xlink" viewBox="0 0 52.55 51.51"><defs><clipPath id="clip-path" transform="translate(-667.81 -321.62)"><path d="M722.81,319.45l-11.06-3.63-28.68,22.67-14.54,8.94c0.56,0.31.59,0.27,1.15,0.57s0.7,0.06,1.26.37,0.53,0.37,1.09.68l1.12,0.63,1.13,0.61c0.56,0.31.44,0.54,1,.85s0.68,0.1,1.24.41,0.6,0.25,1.16.55,0.5,0.43,1.07.74,0.64,0.17,1.2.48,0.48,0.46,1,.77,0.63,0.19,1.2.5,0.43,0.56,1,.87l1.14,0.61c0.57,0.31.62,0.22,1.18,0.53s0.5,0.43,1.07.74,0.46,0.13,1.07.44c0.3,0.15.64,0.34,1,.52s0.65,0.4,1,.55,0.81,0,1.17.17,0.73,0.28,1.09.36a6.06,6.06,0,0,0,1.12.27,5.55,5.55,0,0,0,1.27-.23c0.39-.1.74-0.41,1.16-0.56s0.89-.07,1.29-0.24,0.81-.34,1.18-0.52,0.76-.52,1.09-0.69c0.68-.36.56-0.31,1.11-0.63s0.51-.39,1.06-0.71,0.67-.12,1.22-0.43,0.49-.44,1-0.75,0.54-.33,1.09-0.65,0.51-.4,1.06-0.72,0.66-.13,1.21-0.44,0.53-.35,1.09-0.67,0.53-.37,1.08-0.68,0.51-.39,1.07-0.7,0.57-.29,1.13-0.6,0.49-.43,1-0.75,0.69-.08,1.25-0.39,0.42-.56,1-0.87,0.58-.28,1.14-0.59,0.67-.12,1.22-0.44L727,344.3Z" fill="none"/></clipPath></defs><title>icon_paper_check</title><path d="M669.64,345.45c0.49-.36.46-0.4,0.95-0.76s0.32-.58.81-0.94,0.52-.31,1-0.67l1-.71,1-.73c0.49-.36.64-0.16,1.12-0.52s0.35-.55.84-0.91,0.45-.42.93-0.78,0.56-.26,1.05-0.62,0.4-.48.88-0.85,0.58-.23,1.07-0.6,0.4-.47.89-0.83,0.65-.15,1.14-0.51l1-.74c0.49-.37.43-0.45,0.92-0.81s0.57-.26,1.06-0.62a9.82,9.82,0,0,1,1-.8c0.3-.2.67-0.41,1.07-0.65s0.75-.32,1.13-0.53,0.63-.59,1-0.77,0.8-.29,1.19-0.42a9.58,9.58,0,0,1,1.24-.22,6.1,6.1,0,0,1,1.23-.17,6.3,6.3,0,0,1,1.2-.06,11.53,11.53,0,0,1,1.09.54c0.37,0.12.73,0.28,1.09,0.43s0.78,0.21,1.13.38,0.73,0.35,1.06.54,0.78,0.35,1.07.53a5.43,5.43,0,0,1,.85.82c0.51,0.39.59,0.29,1.1,0.69s0.52,0.38,1,.78,0.56,0.32,1.07.72,0.38,0.56.88,1,0.53,0.37,1,.77,0.54,0.36,1,.76,0.55,0.34,1.06.73,0.49,0.42,1,.82,0.59,0.3,1.09.7,0.34,0.61.85,1,0.67,0.19,1.17.59,0.48,0.44,1,.84,0.38,0.57.89,1,0.55,0.35,1.06.75,0.46,0.47,1,.87" transform="translate(-667.81 -321.62)" fill="#ebebec"/><path d="M669.64,345.45c0.49-.36.46-0.4,0.95-0.76s0.32-.58.81-0.94c1-.72,2-1.39,3-2.11,2.6-1.93,5.39-3.73,7.92-5.62l1-.74c0.49-.37.43-0.45,0.92-0.81s0.57-.26,1.06-0.62a9.82,9.82,0,0,1,1-.8c0.3-.2.67-0.41,1.07-0.65a18.33,18.33,0,0,1,3.34-1.72,9.58,9.58,0,0,1,1.24-.22,6.1,6.1,0,0,1,1.23-.17,6.3,6.3,0,0,1,1.2-.06,11.53,11.53,0,0,1,1.09.54c0.37,0.12.73,0.28,1.09,0.43s0.78,0.21,1.13.38,0.73,0.35,1.06.54,0.78,0.35,1.07.53a4.79,4.79,0,0,1,.83.8c2.37,1.86,4.87,3.56,7.24,5.42,0.51,0.4.49,0.42,1,.82s0.59,0.3,1.09.7,0.34,0.61.85,1,0.67,0.19,1.17.59,0.48,0.44,1,.84,0.38,0.57.89,1,0.55,0.35,1.06.75,0.46,0.47,1,.87" transform="translate(-667.81 -321.62)" fill="none" stroke="#333" stroke-linecap="round" stroke-miterlimit="10"/><path d="M671.71,369.9a3.7,3.7,0,0,1-1.06-.25,3.2,3.2,0,0,1-1-.48,3,3,0,0,1-1-.63,2.49,2.49,0,0,1-.2-1.24c0-.71.11-0.71,0.11-1.42s-0.15-.71-0.15-1.42c0-2.87-.15-5.74-0.15-8.55,0-.71.23-0.71,0.23-1.43s0.13-.71.13-1.43,0-.71,0-1.43-0.33-.71-0.33-1.43,0.28-.72.28-1.43-0.14-.71-0.14-1.43a2.13,2.13,0,0,1,.53-1,2.78,2.78,0,0,1,.62-1,3.58,3.58,0,0,1,1.07-.27,3.67,3.67,0,0,1,1-.31c0.61,0,.61.13,1.23,0.13s0.61,0,1.23,0,0.62-.11,1.23-0.11,0.61-.07,1.23-0.07h1.23c0.62,0,.62.15,1.23,0.15s0.62,0.07,1.23.07,0.61-.38,1.23-0.38,0.62,0.32,1.23.32,0.62-.21,1.23-0.21,0.62,0.26,1.23.26,0.62-.08,1.23-0.08,0.62,0.11,1.23.11,0.62-.12,1.23-0.12h1.23c0.62,0,.62.1,1.23,0.1s0.62-.11,1.23-0.11,0.62-.11,1.23-0.11,0.62,0.19,1.23.19,0.62-.12,1.24-0.12,0.62-.13,1.23-0.13,0.62,0,1.23,0,0.62,0.1,1.23.1,0.62,0.16,1.23.16,0.62-.1,1.23-0.1,0.62-.12,1.23-0.12,0.62-.19,1.24-0.19,0.62,0.18,1.23.18,0.62,0.14,1.24.14,0.62,0.06,1.24.06,0.62-.31,1.24-0.31,0.62,0.25,1.24.25,0.62,0,1.24,0,0.62-.25,1.24-0.25a3.86,3.86,0,0,1,1.07.34,3.76,3.76,0,0,1,1.1.27,3,3,0,0,1,.59,1.06,1.9,1.9,0,0,1,.3,1.06c0,0.7.3,0.53,0.3,1.4,0,0.4-.29.87-0.29,1.4s0,0.9,0,1.41c0,3.77,0,7.63-.05,11.24,0,0.5.21,1,.2,1.41s0,1,0,1.41a5.54,5.54,0,0,1-.23,1.4,3,3,0,0,1-.06,1.27,2.43,2.43,0,0,1-.9.81,3.74,3.74,0,0,1-1.07.41,6.46,6.46,0,0,1-1.09.49,10.34,10.34,0,0,1-1.17,0c-0.19,0-.62.09-1.27,0.09-0.36,0-.78-0.36-1.27-0.36l-1.27,0c-0.4,0-.82.1-1.27,0.1S706.44,370,706,370s-0.83.09-1.27,0.09-0.83-.28-1.27-0.28-0.84.21-1.27,0.21-0.84.07-1.27,0.07h-1.27c-0.42,0-.84-0.21-1.27-0.21s-0.84.14-1.27,0.14c-2.56,0-5.12.07-7.62,0.07-0.43,0-.85-0.31-1.27-0.31s-0.85.19-1.27,0.19-0.85.12-1.27,0.12c-2.12,0-4.25-.17-6.36-0.17-0.44,0-.86.11-1.27,0.11s-0.87-.19-1.27-0.19-0.87,0-1.27,0-0.88.16-1.27,0.16-0.91.13-1.27,0.13C672.17,370.06,672.34,369.9,671.71,369.9Z" transform="translate(-667.81 -321.62)" fill="#fff" stroke="#333" stroke-linecap="round" stroke-miterlimit="10"/><path d="M671.71,369.9a3.7,3.7,0,0,1-1.06-.25,3.2,3.2,0,0,1-1-.48,3,3,0,0,1-1-.63,2.49,2.49,0,0,1-.2-1.24c0-.71.11-0.71,0.11-1.42s-0.15-.71-0.15-1.42c0-3.81.2-7.64,0.2-11.4,0-.71,0-0.71,0-1.43s-0.33-.71-0.33-1.43,0.28-.72.28-1.43-0.14-.71-0.14-1.43a2.13,2.13,0,0,1,.53-1,2.78,2.78,0,0,1,.62-1,3.58,3.58,0,0,1,1.07-.27,3.67,3.67,0,0,1,1-.31c0.61,0,.61.13,1.23,0.13s0.61,0,1.23,0,0.62-.11,1.23-0.11,0.61-.07,1.22-0.07c1.65,0,3.37-.15,4.93-0.15,0.62,0,.62.32,1.23,0.32s0.62-.21,1.23-0.21,0.62,0.26,1.23.26,0.62-.08,1.23-0.08,0.62,0.11,1.23.11,0.62-.12,1.23-0.12h1.23c0.62,0,.62.1,1.23,0.1s0.62-.11,1.23-0.11,0.62-.11,1.23-0.11,0.62,0.19,1.23.19,0.62-.12,1.24-0.12,0.62-.13,1.23-0.13,0.62,0,1.23,0,0.62,0.1,1.23.1,0.62,0.16,1.23.16,0.62-.1,1.23-0.1,0.62-.12,1.23-0.12,0.62-.19,1.24-0.19,0.62,0.18,1.23.18,0.62,0.14,1.24.14,0.62,0.06,1.24.06,0.62-.31,1.24-0.31,0.62,0.25,1.24.25,0.62,0,1.24,0,0.62-.25,1.24-0.25a3.86,3.86,0,0,1,1.07.34,3.76,3.76,0,0,1,1.1.27,3,3,0,0,1,.59,1.06,1.9,1.9,0,0,1,.3,1.06c0,0.7.3,0.53,0.3,1.4,0,0.4-.29.87-0.29,1.4s0,0.9,0,1.4c0,4.24.17,8.52,0.15,12.65,0,0.53,0,1,0,1.41a5.54,5.54,0,0,1-.23,1.4,3,3,0,0,1-.06,1.27,2.43,2.43,0,0,1-.9.81,3.74,3.74,0,0,1-1.07.41,6.46,6.46,0,0,1-1.09.49,10.34,10.34,0,0,1-1.17,0c-0.19,0-.62.09-1.27,0.09-0.36,0-.78-0.36-1.27-0.36l-1.27,0c-0.4,0-.82.1-1.27,0.1S706.44,370,706,370s-0.83.09-1.27,0.09-0.83-.28-1.27-0.28-0.84.21-1.27,0.21-0.84.07-1.27,0.07h-1.27c-0.42,0-.84-0.21-1.27-0.21-3.81,0-7.66.09-11.43,0.09-0.43,0-.85.12-1.27,0.12s-0.85,0-1.27,0-0.85-.19-1.27-0.19-0.85,0-1.27,0S681,370,680.6,370s-0.86-.13-1.27-0.13-0.86.11-1.27,0.11-0.87-.19-1.27-0.19-0.87,0-1.27,0-0.88.16-1.27,0.16-0.91.13-1.27,0.13C672.17,370.06,672.34,369.9,671.71,369.9Z" transform="translate(-667.81 -321.62)" fill="none" stroke="#333" stroke-linecap="round" stroke-miterlimit="10"/><path d="M668.53,347.43c0.56,0.31.59,0.27,1.15,0.57s0.7,0.06,1.26.37,0.53,0.37,1.09.68l1.12,0.63,1.13,0.61c0.56,0.31.44,0.54,1,.85s0.68,0.1,1.24.41,0.6,0.25,1.16.55,0.5,0.43,1.07.74,0.64,0.17,1.2.48,0.48,0.46,1,.77,0.63,0.19,1.2.5,0.43,0.56,1,.87l1.14,0.61c0.57,0.31.62,0.22,1.18,0.53s0.5,0.43,1.07.74,0.46,0.13,1.07.44c0.3,0.15.64,0.34,1,.52s0.65,0.4,1,.55,0.81,0,1.17.17,0.73,0.28,1.09.36a6.06,6.06,0,0,0,1.12.27,5.55,5.55,0,0,0,1.27-.23c0.39-.1.74-0.41,1.16-0.56s0.89-.07,1.29-0.24,0.81-.34,1.18-0.52,0.76-.52,1.09-0.69c0.68-.36.56-0.31,1.11-0.63s0.51-.39,1.06-0.71,0.67-.12,1.22-0.43,0.49-.44,1-0.75,0.54-.33,1.09-0.65,0.51-.4,1.06-0.72,0.66-.13,1.21-0.44,0.53-.35,1.09-0.67,0.53-.37,1.08-0.68,0.51-.39,1.07-0.7,0.57-.29,1.13-0.6,0.49-.43,1-0.75,0.69-.08,1.25-0.39,0.42-.56,1-0.87,0.58-.28,1.14-0.59,0.67-.12,1.22-0.44" transform="translate(-667.81 -321.62)" fill="#ebebec"/><path d="M715.82,345.14a11.14,11.14,0,0,1,1,2.23c-0.56.32-.67,0.12-1.22,0.44s-0.58.28-1.14,0.59-0.42.56-1,.87-0.69.08-1.25,0.39-0.49.43-1,.75-0.57.29-1.13,0.6-0.51.39-1.07,0.7-0.53.37-1.08,0.68-0.53.35-1.09,0.67-0.66.13-1.21,0.44-0.51.4-1.06,0.72-0.54.33-1.09,0.65-0.48.44-1,.75-0.67.12-1.22,0.43-0.51.39-1.06,0.71-0.43.27-1.11,0.63c-0.33.17-.67,0.49-1.09,0.69s-0.78.34-1.18,0.52-0.89.09-1.29,0.24-0.77.46-1.16,0.56a5.55,5.55,0,0,1-1.27.23,6.06,6.06,0,0,1-1.12-.27c-0.36-.08-0.71-0.23-1.09-0.36s-0.81,0-1.17-.17-0.69-.4-1-0.55-0.73-.37-1-0.52c-0.62-.31-0.57-0.16-1.07-0.44s-0.5-.43-1.07-0.74-0.62-.22-1.18-0.53l-1.14-.61c-0.56-.31-0.43-0.56-1-0.87s-0.63-.19-1.2-0.5-0.48-.46-1-0.77-0.64-.17-1.2-0.48-0.5-.43-1.07-0.74-0.6-.25-1.16-0.55-0.68-.1-1.24-0.41-0.44-.54-1-0.85l-1.13-.61-1.12-.63c-0.56-.31-0.53-0.37-1.09-0.68s-0.7-.06-1.26-0.37-1.17-.29-1.15-0.57a3.72,3.72,0,0,1,1.31-2.63" transform="translate(-667.81 -321.62)" fill="#ebebec" stroke="#333" stroke-linecap="round" stroke-linejoin="round" stroke-width="1.41"/><path d="M683.82,356.53c-0.44.51-1.19,1.22-1.63,1.73s-0.46.49-.9,1-0.43.52-.87,1-0.4.55-.83,1.06-0.48.47-.92,1-0.41.54-.85,1.05-0.47.48-.91,1-0.42.52-.86,1-0.45.5-.89,1-0.43.52-.87,1-0.46.49-.9,1l-0.89,1" transform="translate(-667.81 -321.62)" fill="none" stroke="#333" stroke-linecap="round" stroke-miterlimit="10"/><path d="M701.93,356.53l1.5,1.71c0.44,0.51.41,0.54,0.85,1.05s0.46,0.49.9,1,0.4,0.55.84,1.05,0.45,0.5.89,1,0.47,0.48.91,1,0.41,0.54.85,1.05,0.46,0.49.9,1l0.88,1c0.44,0.51.46,0.49,0.9,1s0.42,0.54.86,1.06,0.41,0.55.85,1.06" transform="translate(-667.81 -321.62)" fill="none" stroke="#333" stroke-linecap="round" stroke-miterlimit="10"/><path d="M669,346.12a2.47,2.47,0,0,1,.62-0.88,3.87,3.87,0,0,1,1.07-.25,4,4,0,0,1,1-.28c0.61,0,.61.12,1.23,0.12s0.61,0,1.23,0,0.62-.1,1.23-0.1,0.61-.06,1.23-0.06h1.23c0.62,0,.62.13,1.23,0.13s0.62,0.06,1.23.06,0.61-.34,1.23-0.34,0.62,0.29,1.23.29,0.62-.19,1.23-0.19,0.62,0.24,1.23.24,0.62-.07,1.23-0.07,0.62,0.1,1.23.1,0.62-.11,1.23-0.11h1.23c0.62,0,.62.09,1.23,0.09s0.62-.1,1.23-0.1,0.62-.1,1.23-0.1,0.62,0.17,1.23.17,0.62-.11,1.24-0.11,0.62-.12,1.23-0.12,0.62,0,1.23,0,0.62,0.09,1.23.09,0.62,0.14,1.23.14,0.62-.09,1.23-0.09,0.62-.11,1.23-0.11,0.62-.17,1.24-0.17,0.62,0.16,1.23.16,0.62,0.13,1.24.13,0.62,0.05,1.24.05,0.62-.27,1.24-0.27,0.62,0.23,1.24.23,0.62,0,1.24,0,0.62-.22,1.24-0.22a4.21,4.21,0,0,1,1.07.3,4.09,4.09,0,0,1,1.1.24,2.68,2.68,0,0,1,.59,1" transform="translate(-667.81 -321.62)" fill="none" stroke="#333" stroke-linecap="round" stroke-miterlimit="10" stroke-width="1.41"/><path d="M669,346.12a2.47,2.47,0,0,1,.62-0.88,3.87,3.87,0,0,1,1.07-.25,4,4,0,0,1,1-.28c0.61,0,.61.12,1.23,0.12s0.61,0,1.23,0,0.62-.1,1.23-0.1,0.61-.06,1.23-0.06h1.23c0.62,0,.62.13,1.23,0.13s0.62,0.06,1.23.06,0.61-.34,1.23-0.34,0.62,0.29,1.23.29,0.62-.19,1.23-0.19,0.62,0.24,1.23.24,0.62-.07,1.23-0.07,0.62,0.1,1.23.1,0.62-.11,1.23-0.11h1.23c0.62,0,.62.09,1.23,0.09s0.62-.1,1.23-0.1,0.62-.1,1.23-0.1,0.62,0.17,1.23.17,0.62-.11,1.24-0.11,0.62-.12,1.23-0.12,0.62,0,1.23,0,0.62,0.09,1.23.09,0.62,0.14,1.23.14,0.62-.09,1.23-0.09,0.62-.11,1.23-0.11,0.62-.17,1.24-0.17,0.62,0.16,1.23.16,0.62,0.13,1.24.13,0.62,0.05,1.24.05,0.62-.27,1.24-0.27,0.62,0.23,1.24.23,0.62,0,1.24,0,0.62-.22,1.24-0.22a4.21,4.21,0,0,1,1.07.3,4.09,4.09,0,0,1,1.1.24,2.68,2.68,0,0,1,.59,1" transform="translate(-667.81 -321.62)" fill="none" stroke="#333" stroke-linecap="round" stroke-miterlimit="10"/><g clip-path="url(#clip-path)"><path d="M685.84,372a2.24,2.24,0,0,1-3.16-.18c-0.87-.87-0.92-0.83-1.8-1.7s-0.95-.81-1.82-1.68-0.92-.83-1.8-1.71-0.7-1-1.58-1.92-1-.72-1.91-1.6-0.74-1-1.62-1.9-1-.72-1.92-1.6a2.21,2.21,0,0,1,.18-3.14c0.88-.88.74-1,1.62-1.91s1-.79,1.85-1.67,0.92-.84,1.8-1.72,0.86-.9,1.74-1.78,0.71-1.06,1.59-1.94,0.89-.87,1.77-1.75,0.92-.85,1.8-1.73,0.92-.84,1.81-1.72,0.83-.93,1.72-1.82,1-.75,1.9-1.63,0.84-.92,1.72-1.8,0.74-1,1.62-1.91,0.94-.82,1.82-1.7,1.06-.71,1.94-1.59,0.67-1.1,1.55-2,0.95-.82,1.83-1.7,0.87-.9,1.75-1.79,0.8-1,1.69-1.86,1.09-.68,2-1.56a2.23,2.23,0,0,1,3.17-.12c0.86,0.87.59,0.78,1.62,1.83,0.5,0.51,1.14,1,1.77,1.68s1.08,1.18,1.67,1.78,1.09,1.23,1.66,1.81,1.31,1.06,1.86,1.61,1.11,1.34,1.61,1.85a16.94,16.94,0,0,0,1.85,1.6,2.3,2.3,0,0,1,.6,2.16,3.86,3.86,0,0,1-1.28,1.78c-0.14.14-.74,0.77-1.71,1.74L715,342.39c-0.53.53-.89,1.33-1.51,1.95l-1.72,1.73c-0.55.55-1.35,0.91-1.95,1.5s-0.94,1.33-1.53,1.92-1.18,1.1-1.76,1.69-1.21,1.08-1.79,1.66-1.1,1.2-1.67,1.77-1.06,1.25-1.64,1.82-1.25,1.07-1.82,1.64-1.26,1.06-1.83,1.63L696,361.42c-0.59.59-1,1.33-1.57,1.9s-1.38,1-1.94,1.51-0.9,1.46-1.45,2-1.29,1.1-1.82,1.63-1.3,1.17-1.79,1.66C686.37,371.22,686.7,371.09,685.84,372Z" transform="translate(-667.81 -321.62)" fill="#d3eaf8"/><path d="M685.84,372a2.24,2.24,0,0,1-3.16-.18c-0.87-.87-0.92-0.83-1.8-1.7s-0.95-.81-1.82-1.68-0.92-.83-1.8-1.71-0.7-1-1.58-1.92-1-.72-1.91-1.6-0.74-1-1.62-1.9-1-.72-1.92-1.6a2.21,2.21,0,0,1,.18-3.14c0.88-.88.74-1,1.62-1.91s1-.79,1.85-1.67,0.92-.84,1.8-1.72,0.86-.9,1.74-1.78,0.71-1.06,1.59-1.94,0.89-.87,1.77-1.75,0.92-.85,1.8-1.73,0.92-.84,1.81-1.72,0.83-.93,1.72-1.82,1-.75,1.9-1.63,0.84-.92,1.72-1.8,0.74-1,1.62-1.91,0.94-.82,1.82-1.7,1.06-.71,1.94-1.59,0.67-1.1,1.55-2,0.95-.82,1.83-1.7,0.87-.9,1.75-1.79,0.8-1,1.69-1.86,1.09-.68,2-1.56a2.23,2.23,0,0,1,3.17-.12c0.86,0.87.59,0.78,1.62,1.83,0.5,0.51,1.14,1,1.77,1.68s1.08,1.18,1.67,1.78,1.09,1.23,1.66,1.81,1.31,1.06,1.86,1.61,1.11,1.34,1.61,1.85a16.94,16.94,0,0,0,1.85,1.6,2.3,2.3,0,0,1,.6,2.16,3.86,3.86,0,0,1-1.28,1.78c-0.14.14-.74,0.77-1.71,1.74L715,342.39c-0.53.53-.89,1.33-1.51,1.95l-1.72,1.73c-0.55.55-1.35,0.91-1.95,1.5s-0.94,1.33-1.53,1.92-1.18,1.1-1.76,1.69-1.21,1.08-1.79,1.66-1.1,1.2-1.67,1.77-1.06,1.25-1.64,1.82-1.25,1.07-1.82,1.64-1.26,1.06-1.83,1.63L696,361.42c-0.59.59-1,1.33-1.57,1.9s-1.38,1-1.94,1.51-0.9,1.46-1.45,2-1.29,1.1-1.82,1.63-1.3,1.17-1.79,1.66C686.37,371.22,686.7,371.09,685.84,372Z" transform="translate(-667.81 -321.62)" fill="none" stroke="#333" stroke-linecap="round" stroke-miterlimit="10" stroke-width="1.2"/><path d="M708.87,331.75c0,0.2-.13.12-0.28,0.27-0.94.94-1,.93-1.89,1.87s-0.92,1-1.86,1.9-0.91,1-1.85,1.91l-1.88,1.89c-0.94.94-1,.91-1.92,1.85-0.14.14-.08,0.34-0.29,0.32s-0.16-.21-0.34-0.39c-0.91-.91-1-0.86-1.85-1.77-0.21-.21-0.4-0.16-0.41-0.46s0.21-.22.41-0.43c0.93-.93,1-0.9,1.88-1.83s0.88-1,1.81-1.9,1-.88,1.9-1.81,0.9-1,1.83-1.89,1-.9,1.89-1.83c0.14-.14.06-0.32,0.27-0.29a0.71,0.71,0,0,1,.45.38c0.9,0.9.83,1,1.77,1.83C708.72,331.56,708.84,331.49,708.87,331.75Z" transform="translate(-667.81 -321.62)" fill="#fff"/><path d="M708.87,331.75c0,0.2-.13.12-0.28,0.27-0.94.94-1,.93-1.89,1.87s-0.92,1-1.86,1.9-0.91,1-1.85,1.91l-1.88,1.89c-0.94.94-1,.91-1.92,1.85-0.14.14-.08,0.34-0.29,0.32s-0.16-.21-0.34-0.39c-0.91-.91-1-0.86-1.85-1.77-0.21-.21-0.4-0.16-0.41-0.46s0.21-.22.41-0.43c0.93-.93,1-0.9,1.88-1.83s0.88-1,1.81-1.9,1-.88,1.9-1.81,0.9-1,1.83-1.89,1-.9,1.89-1.83c0.14-.14.06-0.32,0.27-0.29a0.71,0.71,0,0,1,.45.38c0.9,0.9.83,1,1.77,1.83C708.72,331.56,708.84,331.49,708.87,331.75Z" transform="translate(-667.81 -321.62)" fill="none" stroke="#333" stroke-linecap="round" stroke-miterlimit="10" stroke-width="1.15"/><path d="M677.29,359.79c0.91-.91.94-0.88,1.84-1.78s0.94-.88,1.85-1.79,0.9-.92,1.8-1.83,0.87-.95,1.78-1.86l1.82-1.82c0.91-.91,1-0.86,1.87-1.77l1.82-1.83c0.91-.91.88-0.94,1.8-1.86s0.95-.88,1.86-1.79" transform="translate(-667.81 -321.62)" fill="none" stroke="#333" stroke-linecap="round" stroke-miterlimit="10" stroke-width="1.15"/><path d="M680.13,362.85c0.85-.85.88-0.82,1.72-1.67l1.69-1.7c0.85-.85.81-0.89,1.66-1.73s0.9-.8,1.75-1.65,0.83-.87,1.67-1.71,0.87-.83,1.72-1.68,0.78-.92,1.64-1.77,0.89-.81,1.74-1.66" transform="translate(-667.81 -321.62)" fill="none" stroke="#333" stroke-linecap="round" stroke-miterlimit="10" stroke-width="1.15"/><path d="M713,336.68a3.41,3.41,0,0,0-1.4,1.33,11.61,11.61,0,0,1-1.09,1.58c-0.76.29-.65-0.68-1.1,0.38a5.42,5.42,0,0,1-1.31,2c-0.74-1.16-1-.84-1.2-0.2a18.2,18.2,0,0,1-.38,1.85,8.4,8.4,0,0,1-1.16,1.59,2.48,2.48,0,0,1-1.59,1.1c0-.8.92-1.93,0.11-2.79-0.61-.64-1.11,0-1.43.92a5.9,5.9,0,0,0-.41,2.09c0.1,0.62.65,1.1,0.08,1.72a5.39,5.39,0,0,0-.75,1.59c-0.07.73-.81,0.85-0.45,1.43,0.46,0.75,1.16-.5,1.47-1a6.18,6.18,0,0,0,.58-1.17c0-.83,1.46-1.61,2-2.24a28.72,28.72,0,0,0,1.83-2.26c0.53-.81,1-0.72,1.48-1.31,0.7-.8,1.21-1.62,1.83-2.46,0.34-.23.5,0.34,0.81-0.16a2.47,2.47,0,0,0,.75-0.85,9.4,9.4,0,0,1,1.27-1.63c0.6-.73,1-1.42.09-1.54C711.67,337.31,713.49,336.74,713,336.68Z" transform="translate(-667.81 -321.62)" fill="#333" fill-rule="evenodd"/></g><path d="M668.53,347.43c0.56,0.31.59,0.27,1.15,0.57s0.7,0.06,1.26.37,0.53,0.37,1.09.68l1.12,0.63,1.13,0.61c0.56,0.31.44,0.54,1,.85s0.68,0.1,1.24.41,0.6,0.25,1.16.55,0.5,0.43,1.07.74,0.64,0.17,1.2.48,0.48,0.46,1,.77,0.63,0.19,1.2.5,0.43,0.56,1,.87l1.14,0.61c0.57,0.31.62,0.22,1.18,0.53s0.5,0.43,1.07.74,0.46,0.13,1.07.44c0.3,0.15.64,0.34,1,.52s0.65,0.4,1,.55,0.81,0,1.17.17,0.73,0.28,1.09.36a6.06,6.06,0,0,0,1.12.27,5.55,5.55,0,0,0,1.27-.23c0.39-.1.74-0.41,1.16-0.56s0.89-.07,1.29-0.24,0.81-.34,1.18-0.52,0.76-.52,1.09-0.69c0.68-.36.56-0.31,1.11-0.63s0.51-.39,1.06-0.71,0.67-.12,1.22-0.43,0.49-.44,1-0.75,0.54-.33,1.09-0.65,0.51-.4,1.06-0.72,0.66-.13,1.21-0.44,0.53-.35,1.09-0.67,0.53-.37,1.08-0.68,0.51-.39,1.07-0.7,0.57-.29,1.13-0.6,0.49-.43,1-0.75,0.69-.08,1.25-0.39,0.42-.56,1-0.87,0.58-.28,1.14-0.59,0.67-.12,1.22-0.44" transform="translate(-667.81 -321.62)" fill="none"/><path d="M669,346.12a3.75,3.75,0,0,0-.45,1.32c0,0.43.59,0.27,1.15,0.57s0.7,0.06,1.26.37,0.53,0.37,1.09.68l1.12,0.63,1.13,0.61c0.56,0.31.44,0.54,1,.85s0.68,0.1,1.24.41,0.6,0.25,1.16.55,0.5,0.43,1.07.74,0.64,0.17,1.2.48,0.48,0.46,1,.77,0.63,0.19,1.2.5,0.43,0.56,1,.87l1.14,0.61c0.57,0.31.62,0.22,1.18,0.53s0.5,0.43,1.07.74,0.46,0.13,1.07.44c0.3,0.15.64,0.34,1,.52s0.65,0.4,1,.55,0.81,0,1.17.17,0.73,0.28,1.09.36a6.06,6.06,0,0,0,1.12.27,5.55,5.55,0,0,0,1.27-.23c0.39-.1.74-0.41,1.16-0.56s0.89-.07,1.29-0.24,0.81-.34,1.18-0.52,0.76-.52,1.09-0.69c0.68-.36.56-0.31,1.11-0.63s0.51-.39,1.06-0.71,0.67-.12,1.22-0.43,0.49-.44,1-0.75,0.54-.33,1.09-0.65,0.51-.4,1.06-0.72,0.66-.13,1.21-0.44,0.53-.35,1.09-0.67,0.53-.37,1.08-0.68,0.51-.39,1.07-0.7,0.57-.29,1.13-0.6,0.49-.43,1-0.75,0.69-.08,1.25-0.39,0.42-.56,1-0.87,0.58-.28,1.14-0.59,0.67-.12,1.22-0.44c0,0,.58-0.68-0.42-1.28" transform="translate(-667.81 -321.62)" fill="none" stroke="#333" stroke-linecap="round" stroke-miterlimit="10"/></svg>