<svg id="Layer_1" data-name="Layer 1" xmlns="http://www.w3.org/2000/svg" viewBox="0 0 56.25 58.23"><title>icon_receive_money</title><path d="M611.07,61.77c0,0.19-.25.74-0.41,1.51a14.74,14.74,0,0,0-.09,1.63,3.1,3.1,0,0,0,.06,1.59,2.31,2.31,0,0,0,1,.88,6.75,6.75,0,0,0,1.26.52c0.48,0.13,1,.15,1.34.23s0.82,0.11,1.5.25l1.48,0.32c0.49,0.11,1,.39,1.45.51s1.08,0.07,1.52.2a5.83,5.83,0,0,1,1.43.55,1,1,0,0,1-.05,1.46,13.06,13.06,0,0,1-1.48.11l-1.48,0c-0.46,0-1,0-1.47,0s-1,0-1.47-.06-1,.1-1.48.09-1-.1-1.48-0.12-1,.06-1.48,0-1-.25-1.47-0.27-1-.07-1.48-0.08-1.06.19-1.49,0.17a8.51,8.51,0,0,1-1.47-.25c-0.46,0-1,.13-1.56.13s-1-.06-1.56-0.06-1,.13-1.57.13S599.57,71,599,71s-1.07.06-1.57,0.05l-1.57,0c-0.62,0-1.15-.1-1.55-0.13a0.5,0.5,0,0,1-.49-0.69,1.37,1.37,0,0,1,1.08-.69,12.32,12.32,0,0,1,1.31-.5c0.45-.11.94-0.06,1.4-0.15s0.95-.24,1.37-0.31c0.66-.11,1.17-0.22,1.37-0.27,0.38-.08.8-0.29,1.27-0.43s0.9-.14,1.32-0.28,0.93-.22,1.3-0.39a2.39,2.39,0,0,0,1.1-.83c0.06-.13-0.1-0.76-0.09-1.55,0-.47.08-1,0.07-1.53s0-1.11,0-1.58c0.68-.23.73,0.15,1.44,0.15s0.71-.19,1.43-0.2,0.72,0.14,1.44.13A6.36,6.36,0,0,1,611.07,61.77Z" transform="translate(-579.98 -13.95)" fill="#fff"/><path d="M611.07,61.77c0,0.19-.25.74-0.41,1.51a14.74,14.74,0,0,0-.09,1.63,3.1,3.1,0,0,0,.06,1.59,2.31,2.31,0,0,0,1,.88,6.75,6.75,0,0,0,1.26.52c0.48,0.13,1,.15,1.34.23s0.82,0.11,1.5.25l1.48,0.32c0.49,0.11,1,.39,1.45.51s1.08,0.07,1.52.2a5.83,5.83,0,0,1,1.43.55,1,1,0,0,1-.05,1.46,13.06,13.06,0,0,1-1.48.11l-1.48,0c-0.46,0-1,0-1.47,0s-1,0-1.47-.06-1,.1-1.48.09-1-.1-1.48-0.12-1,.06-1.48,0-1-.25-1.47-0.27-1-.07-1.48-0.08-1.06.19-1.49,0.17a8.51,8.51,0,0,1-1.47-.25c-0.46,0-1,.13-1.56.13s-1-.06-1.56-0.06-1,.13-1.57.13S599.57,71,599,71s-1.07.06-1.57,0.05l-1.57,0c-0.62,0-1.15-.1-1.55-0.13a0.5,0.5,0,0,1-.49-0.69,1.37,1.37,0,0,1,1.08-.69,12.32,12.32,0,0,1,1.31-.5c0.45-.11.94-0.06,1.4-0.15s0.95-.24,1.37-0.31c0.66-.11,1.17-0.22,1.37-0.27,0.38-.08.8-0.29,1.27-0.43s0.9-.14,1.32-0.28,0.93-.22,1.3-0.39a2.39,2.39,0,0,0,1.1-.83c0.06-.13-0.1-0.76-0.09-1.55,0-.47.08-1,0.07-1.53s0-1.11,0-1.58c0.68-.23.73,0.15,1.44,0.15s0.71-.19,1.43-0.2,0.72,0.14,1.44.13A6.36,6.36,0,0,1,611.07,61.77Z" transform="translate(-579.98 -13.95)" fill="none" stroke="#333" stroke-linecap="round" stroke-miterlimit="10" stroke-width="1.25"/><path d="M582.73,63.67a2.08,2.08,0,0,1-2.13-2c0-1.08,0-1.08,0-2.17s0.06-1.08.08-2.17,0-1.08,0-2.17,0-1.08.05-2.17-0.05-1.09,0-2.17,0.2-1.08.21-2.17-0.06-1.09-.05-2.17,0-1.08,0-2.17-0.07-1.09-.06-2.17,0.05-1.09.07-2.17,0-1.09,0-2.17,0-1.09,0-2.17,0-1.09,0-2.18,0.12-1.09.13-2.17a2.11,2.11,0,0,1,2.11-2.1c1.09,0,1.09,0,2.19,0s1.09,0,2.18.05l2.18,0c1.09,0,1.09.14,2.18,0.15s1.09,0,2.19,0,1.09-.05,2.19,0,1.09-.06,2.19,0,1.09,0.16,2.19.18,1.1,0,2.19,0,1.09-.06,2.19,0l2.19,0c1.09,0,1.09.16,2.19,0.18s1.1-.1,2.19-0.08,1.09,0.09,2.19.11l2.19,0,2.19,0c1.09,0,1.09,0,2.19,0l2.19,0,2.19,0c1.1,0,1.1-.07,2.19-0.06h2.19c1.1,0,1.1.18,2.19,0.19s1.1-.11,2.2-0.09a2.12,2.12,0,0,1,2,2.17c0,1.08,0,.81-0.06,2.16,0,0.62,0,1.35,0,2.16,0,0.67,0,1.39,0,2.16s0.15,1.41.14,2.16-0.19,1.42-.2,2.16,0,1.43,0,2.16-0.09,1.44-.1,2.16,0.17,1.45.16,2.17-0.15,1.46-.16,2.17,0.08,1.47.07,2.17-0.15,1.48-.16,2.17-0.06,1.5-.07,2.17,0.16,1.55.15,2.17c0,1.21-.08,2-0.09,2.16a2.32,2.32,0,0,1-.62,1.59,2.25,2.25,0,0,1-1.6.62c-0.15,0-.93,0-2.18,0-0.62,0-1.35-.23-2.18-0.25-0.67,0-1.4.05-2.18,0s-1.42.12-2.19,0.11-1.43-.22-2.18-0.23-1.44.07-2.18,0.06-1.44.06-2.18,0-1.44-.15-2.18-0.16-1.45,0-2.19,0S611.91,64,611.18,64s-1.46.18-2.19,0.17-1.46-.06-2.19-0.07S605.34,64,604.61,64l-2.19,0-2.19,0-2.19,0h-2.19c-0.75,0-1.48-.06-2.19-0.07s-1.49.1-2.19,0.09l-2.19,0c-0.79,0-1.52-.07-2.18-0.08-0.83,0-1.57-.08-2.18-0.08Z" transform="translate(-579.98 -13.95)" fill="#fff"/><path d="M582.73,63.67a2.08,2.08,0,0,1-2.13-2c0-1.08,0-1.08,0-2.17s0.06-1.08.08-2.17,0-1.08,0-2.17,0-1.08.05-2.17-0.05-1.09,0-2.17,0.2-1.08.21-2.17-0.06-1.09-.05-2.17,0-1.08,0-2.17-0.07-1.09-.06-2.17,0.05-1.09.07-2.17,0-1.09,0-2.17,0-1.09,0-2.17,0-1.09,0-2.18,0.12-1.09.13-2.17a2.11,2.11,0,0,1,2.11-2.1c1.09,0,1.09,0,2.19,0s1.09,0,2.18.05l2.18,0c1.09,0,1.09.14,2.18,0.15s1.09,0,2.19,0,1.09-.05,2.19,0,1.09-.06,2.19,0,1.09,0.16,2.19.18,1.1,0,2.19,0,1.09-.06,2.19,0l2.19,0c1.09,0,1.09.16,2.19,0.18s1.1-.1,2.19-0.08,1.09,0.09,2.19.11l2.19,0,2.19,0c1.09,0,1.09,0,2.19,0l2.19,0,2.19,0c1.1,0,1.1-.07,2.19-0.06h2.19c1.1,0,1.1.18,2.19,0.19s1.1-.11,2.2-0.09a2.12,2.12,0,0,1,2,2.17c0,1.08,0,.81-0.06,2.16,0,0.62,0,1.35,0,2.16,0,0.67,0,1.39,0,2.16s0.15,1.41.14,2.16-0.19,1.42-.2,2.16,0,1.43,0,2.16-0.09,1.44-.1,2.16,0.17,1.45.16,2.17-0.15,1.46-.16,2.17,0.08,1.47.07,2.17-0.15,1.48-.16,2.17-0.06,1.5-.07,2.17,0.16,1.55.15,2.17c0,1.21-.08,2-0.09,2.16a2.32,2.32,0,0,1-.62,1.59,2.25,2.25,0,0,1-1.6.62c-0.15,0-.93,0-2.18,0-0.62,0-1.35-.23-2.18-0.25-0.67,0-1.4.05-2.18,0s-1.42.12-2.19,0.11-1.43-.22-2.18-0.23-1.44.07-2.18,0.06-1.44.06-2.18,0-1.44-.15-2.18-0.16-1.45,0-2.19,0S611.91,64,611.18,64s-1.46.18-2.19,0.17-1.46-.06-2.19-0.07S605.34,64,604.61,64l-2.19,0-2.19,0-2.19,0h-2.19c-0.75,0-1.48-.06-2.19-0.07s-1.49.1-2.19,0.09l-2.19,0c-0.79,0-1.52-.07-2.18-0.08-0.83,0-1.57-.08-2.18-0.08Z" transform="translate(-579.98 -13.95)" fill="none" stroke="#333" stroke-linecap="round" stroke-miterlimit="10" stroke-width="1.25"/><path d="M587.14,58.87a1.65,1.65,0,0,1-1.58-1.73c0-1.09,0-1.09,0-2.19s0-1.09.06-2.19,0-1.1,0-2.19,0.06-1.09.07-2.19,0-1.09,0-2.19,0-1.1,0-2.19,0-1.1.05-2.19,0-1.1,0-2.19,0-1.1,0-2.2,0-1.1.05-2.2a1.64,1.64,0,0,1,1.62-1.67l2.19,0c1.1,0,1.09,0,2.19.06s1.1-.07,2.19-0.06,1.09,0.06,2.19.08,1.1,0.06,2.19.07,1.09,0.08,2.19.09,1.1,0,2.19,0,1.1,0.05,2.19.07,1.1,0,2.19,0,1.1-.08,2.19-0.07,1.1,0.09,2.19.1,1.1,0,2.19.06,1.1,0,2.19,0,1.1,0,2.19,0,1.1,0.06,2.19.08,1.1,0,2.2,0,1.1,0,2.2.05,1.1-.11,2.2-0.09,1.1,0.08,2.2.1a1.69,1.69,0,0,1,1.69,1.67c0,1.09,0,.84-0.06,2.18,0,0.63-.13,1.36-0.14,2.18s0,1.41,0,2.18,0.08,1.44.07,2.18,0,1.45,0,2.19-0.08,1.47-.09,2.19,0,1.48,0,2.19-0.09,1.5-.1,2.19,0,1.56,0,2.19c0,1.21-.09,2-0.09,2.18a1.58,1.58,0,0,1-1.69,1.63c-0.13,0-.92.09-2.19,0.07-0.62,0-1.35-.1-2.19-0.11-0.67,0-1.41.07-2.19,0.06H620l-2.19,0-2.19,0c-0.72,0-1.45-.08-2.19-0.09s-1.45-.06-2.19-0.07S609.79,59,609.05,59s-1.47.11-2.2,0.1l-2.19,0c-0.74,0-1.47-.08-2.19-0.09s-1.48,0-2.2,0-1.48-.14-2.19-0.15H593.7c-0.79,0-1.52-.06-2.19-0.07l-2.19,0A14.61,14.61,0,0,0,587.14,58.87Z" transform="translate(-579.98 -13.95)" fill="#b5ddf3"/><path d="M587.14,58.87a1.65,1.65,0,0,1-1.58-1.73c0-1.09,0-1.09,0-2.19s0-1.09.06-2.19,0-1.1,0-2.19,0.06-1.09.07-2.19,0-1.09,0-2.19,0-1.1,0-2.19,0-1.1.05-2.19,0-1.1,0-2.19,0-1.1,0-2.2,0-1.1.05-2.2a1.64,1.64,0,0,1,1.62-1.67l2.19,0c1.1,0,1.09,0,2.19.06s1.1-.07,2.19-0.06,1.09,0.06,2.19.08,1.1,0.06,2.19.07,1.09,0.08,2.19.09,1.1,0,2.19,0,1.1,0.05,2.19.07,1.1,0,2.19,0,1.1-.08,2.19-0.07,1.1,0.09,2.19.1,1.1,0,2.19.06,1.1,0,2.19,0,1.1,0,2.19,0,1.1,0.06,2.19.08,1.1,0,2.2,0,1.1,0,2.2.05,1.1-.11,2.2-0.09,1.1,0.08,2.2.1a1.69,1.69,0,0,1,1.69,1.67c0,1.09,0,.84-0.06,2.18,0,0.63-.13,1.36-0.14,2.18s0,1.41,0,2.18,0.08,1.44.07,2.18,0,1.45,0,2.19-0.08,1.47-.09,2.19,0,1.48,0,2.19-0.09,1.5-.1,2.19,0,1.56,0,2.19c0,1.21-.09,2-0.09,2.18a1.58,1.58,0,0,1-1.69,1.63c-0.13,0-.92.09-2.19,0.07-0.62,0-1.35-.1-2.19-0.11-0.67,0-1.41.07-2.19,0.06H620l-2.19,0-2.19,0c-0.72,0-1.45-.08-2.19-0.09s-1.45-.06-2.19-0.07S609.79,59,609.05,59s-1.47.11-2.2,0.1l-2.19,0c-0.74,0-1.47-.08-2.19-0.09s-1.48,0-2.2,0-1.48-.14-2.19-0.15H593.7c-0.79,0-1.52-.06-2.19-0.07l-2.19,0A14.61,14.61,0,0,0,587.14,58.87Z" transform="translate(-579.98 -13.95)" fill="none" stroke="#333" stroke-linecap="round" stroke-miterlimit="10" stroke-width="1.25"/><path d="M592.38,54.19a1.49,1.49,0,0,1-1.47-1.51l0.15-11.47a1.49,1.49,0,0,1,1.51-1.47l31.33,0.42a1.49,1.49,0,0,1,1.47,1.51s-0.26,10.9-.27,11.3c0,1.28-1,1.64-2.08,1.62Z" transform="translate(-579.98 -13.95)" fill="#6bbae8" stroke="#231f20" stroke-linecap="round" stroke-miterlimit="10" stroke-width="1.2"/><line x1="14.22" y1="30.7" x2="29.53" y2="30.9" fill="none" stroke="#231f20" stroke-linecap="round" stroke-miterlimit="10" stroke-width="1.15"/><line x1="14.08" y1="33.42" x2="26.76" y2="33.59" fill="none" stroke="#231f20" stroke-linecap="round" stroke-miterlimit="10" stroke-width="1.15"/><path d="M620.89,47.33a2,2,0,0,1,.53,2c-0.69,1-2.15,1.24-3.27,1.41,0,0.19,0,.41,0,0.79s0.06,0.48-.25.49c-0.92,0-.66-0.38-0.65-0.68,0-.58.12-0.42,0-0.62a0.6,0.6,0,0,0-.46-0.14,9.2,9.2,0,0,1-1.33-.39c-0.71-.23-1.54-0.67-1.27-1.11s0.72,0,.94.17a3.43,3.43,0,0,0,.78.29,6,6,0,0,0,1.44.37,1.88,1.88,0,0,0,0-.9,10.07,10.07,0,0,0,.06-1.44c-0.09-.08-0.84.07-1.37,0-1.49-.28-1.82-1.21-1-2.18a2.6,2.6,0,0,1,1.45-.67c0.36-.07,1,0,1.11-0.09a2.53,2.53,0,0,1,.23-1,0.38,0.38,0,0,1,.57.44,0.85,0.85,0,0,0-.05.61s0.58,0,1.32.08c0.49,0,.61.18,0.61,0.42s0,0.42-.55.35c-0.3,0-1-.06-1.43-0.11a3.53,3.53,0,0,0-.08,1.34,7.73,7.73,0,0,1,1.67.12A3.05,3.05,0,0,1,620.89,47.33Zm-0.15,1.51a1.25,1.25,0,0,0-.68-1.23,4,4,0,0,0-1.75-.27,5.42,5.42,0,0,0-.12,1.66,2.05,2.05,0,0,0,0,.93,1.18,1.18,0,0,0,.74-0.08C619.76,49.67,620.64,49.65,620.75,48.84Zm-3.21-2.09,0-1.4a4,4,0,0,0-1.45.21c-0.36.18-1,.56-0.31,1.07S617,46.74,617.53,46.75Z" transform="translate(-579.98 -13.95)" fill="#333" stroke="#333" stroke-miterlimit="10" stroke-width="0.21"/><path d="M621.1,14.41c-6.48-.28-12.64,5.66-14.46,11.36-1.09-1-3.23-2.74-4.76-3.94,0,3.1.11,12.18,0.68,13.77,0.22,0.62.28,0.89,1.13,0.74,1.33-.23,10.39-3.16,12.36-3.25-2.42-2.06-3.4-2.8-5.11-4.4A13,13,0,0,1,622.17,24a76,76,0,0,0,.4-9.36,0.4,0.4,0,0,0-.31-0.25H621.1Z" transform="translate(-579.98 -13.95)" fill="#9c3"/><path d="M621.15,14a15.13,15.13,0,0,0-10.42,4.5,18.92,18.92,0,0,0-3.5,4.58c-0.7,1.29-.32,1.49-1.36,1.31s-2.71-2.22-3.52-2.87a0.74,0.74,0,0,0-1.08.4c0,3.18,0,6.36.21,9.53,0.07,1.22-.22,4.44,1,5.23s3.58-.49,4.54-0.77c2.91-.85,5.94-2,9-2.33,0.36,0,.94-0.44.52-0.8-0.72-.61-4.08-2.66-4.3-3.66-0.28-1.28,2-2.75,2.87-3.21A13.23,13.23,0,0,1,622,24.46a0.74,0.74,0,0,0,.82-0.49,49.33,49.33,0,0,0,.37-5.26c0-.88.47-3.11,0-3.94s-0.83-.81-2-0.8c-0.69,0-.92.89-0.1,0.89,1.56,0,.92,2,0.89,3.41,0,1.68.46,4.41-1,5.26-1.17.67-3.88,0.51-5.25,1.09a14.75,14.75,0,0,0-5.23,3.89,0.35,0.35,0,0,0,0,.53c1.66,1.52,3.39,3,5.11,4.4l0.52-.8a31.46,31.46,0,0,0-5.17,1.19c-1.62.45-4.93,2.19-6.59,1.9-2.95-.52-1.84-11.18-1.85-14l-1.08.4c1.61,1.28,3.22,2.58,4.76,3.94a0.77,0.77,0,0,0,1-.28C609.36,20,614.51,15,621,14.85,621.73,14.84,622,13.95,621.15,14Z" transform="translate(-579.98 -13.95)" fill="#333"/></svg>