<svg id="Layer_1" data-name="Layer 1" xmlns="http://www.w3.org/2000/svg" viewBox="0 0 46.84 46.41"><title>icon_dynamic_discount</title><path d="M1046.06,1474.42a2.56,2.56,0,0,1-2.65-2.65c0-1,0-1,0-2.08s0.12-1,.12-2.08-0.1-1-.1-2.08,0.11-1,.11-2.08-0.09-1-.08-2.09,0-1,0-2.08,0-1,0-2.09,0-1,0-2.09,0-1,0-2.09,0.14-1,.15-2.09-0.09-1-.09-2.09,0.09-1,.09-2.09,0-1,0-2.08,0-1,0-2.09-0.06-1-.05-2.09,0-1,0-2.09,0-1,0-2.09,0-1,0-2.09,0-1,0-2.09a2.59,2.59,0,0,1,.89-1.8,2.51,2.51,0,0,1,1.8-.79h2c1,0,1-.05,2-0.05s1,0.12,2,.12,1-.09,2-0.08,1-.08,2-0.08,1,0.13,2,.13h2c1,0,1,0,2,.05s1,0,2,0,1,0,2,0h2c1,0,1-.08,2-0.07l2,0c1,0,1,.1,2,0.1s1-.16,2-0.16,1,0.1,2,.1,1,0.06,2,.06,1-.07,2-0.07,1-.08,2-0.07,1,0.09,2,.09a2.66,2.66,0,0,1,1.88.75,2.61,2.61,0,0,1,.68,1.89c0,1,0,.76,0,2.08,0,0.59,0,1.29,0,2.08,0,0.64.06,1.33,0.06,2.08s-0.1,1.35-.11,2.08,0.13,1.36.13,2.08,0,1.37,0,2.08,0,1.38,0,2.08-0.15,1.38-.15,2.08,0.07,1.38.06,2.08,0,1.39,0,2.08,0.08,1.39.08,2.08-0.14,1.4-.14,2.08,0.12,1.4.12,2.09,0,1.41,0,2.08-0.14,1.41-.14,2.08,0.06,1.42.06,2.08,0,1.44,0,2.08c0,0.79,0,1.49,0,2.08,0,1.16.07,1.89,0.07,2.07a2.85,2.85,0,0,1-.85,2,2.69,2.69,0,0,1-2,.79c-0.2,0-.9-0.09-2-0.09-0.57,0-1.24.06-2,.06s-1.28.09-2,.08-1.3-.14-2-0.14-1.31.08-2,.08-1.32-.11-2-0.12-1.32.12-2,.12-1.33-.05-2-0.06-1.33.07-2,.07-1.33-.09-2-0.09l-2,0c-0.67,0-1.34.09-2,.09s-1.34,0-2,0h-2c-0.68,0-1.35-.11-2-0.11h-2l-2,0h-2c-0.76,0-1.43,0-2,0C1046.79,1474.38,1047.06,1474.42,1046.06,1474.42Z" transform="translate(-1042.72 -1428.79)" fill="#fff"/><path d="M1046.06,1474.42a2.56,2.56,0,0,1-2.65-2.65c0-1,0-1,0-2.08s0.12-1,.12-2.08-0.1-1-.1-2.08,0.11-1,.11-2.08-0.09-1-.08-2.09,0-1,0-2.08,0-1,0-2.09,0-1,0-2.09,0-1,0-2.09,0.14-1,.15-2.09-0.09-1-.09-2.09,0.09-1,.09-2.09,0-1,0-2.08,0-1,0-2.09-0.06-1-.05-2.09,0-1,0-2.09,0-1,0-2.09,0-1,0-2.09,0-1,0-2.09a2.59,2.59,0,0,1,.89-1.8,2.51,2.51,0,0,1,1.8-.79h2c1,0,1-.05,2-0.05s1,0.12,2,.12,1-.09,2-0.08,1-.08,2-0.08,1,0.13,2,.13h2c1,0,1,0,2,.05s1,0,2,0,1,0,2,0h2c1,0,1-.08,2-0.07l2,0c1,0,1,.1,2,0.1s1-.16,2-0.16,1,0.1,2,.1,1,0.06,2,.06,1-.07,2-0.07,1-.08,2-0.07,1,0.09,2,.09a2.66,2.66,0,0,1,1.88.75,2.61,2.61,0,0,1,.68,1.89c0,1,0,.76,0,2.08,0,0.59,0,1.29,0,2.08,0,0.64.06,1.33,0.06,2.08s-0.1,1.35-.11,2.08,0.13,1.36.13,2.08,0,1.37,0,2.08,0,1.38,0,2.08-0.15,1.38-.15,2.08,0.07,1.38.06,2.08,0,1.39,0,2.08,0.08,1.39.08,2.08-0.14,1.4-.14,2.08,0.12,1.4.12,2.09,0,1.41,0,2.08-0.14,1.41-.14,2.08,0.06,1.42.06,2.08,0,1.44,0,2.08c0,0.79,0,1.49,0,2.08,0,1.16.07,1.89,0.07,2.07a2.85,2.85,0,0,1-.85,2,2.69,2.69,0,0,1-2,.79c-0.2,0-.9-0.09-2-0.09-0.57,0-1.24.06-2,.06s-1.28.09-2,.08-1.3-.14-2-0.14-1.31.08-2,.08-1.32-.11-2-0.12-1.32.12-2,.12-1.33-.05-2-0.06-1.33.07-2,.07-1.33-.09-2-0.09l-2,0c-0.67,0-1.34.09-2,.09s-1.34,0-2,0h-2c-0.68,0-1.35-.11-2-0.11h-2l-2,0h-2c-0.76,0-1.43,0-2,0C1046.79,1474.38,1047.06,1474.42,1046.06,1474.42Z" transform="translate(-1042.72 -1428.79)" fill="none" stroke="#231f20" stroke-linecap="round" stroke-miterlimit="10" stroke-width="1.3"/><path d="M1052.68,1438.83s7.74,0.17,10.8,11.91,17.1,14.55,17.1,14.55l-25.88.23a3,3,0,0,1-1.82-1.09,6.15,6.15,0,0,1-.19-2.9v-22.7Z" transform="translate(-1042.72 -1428.79)" fill="#e2efd2" stroke="#82c341" stroke-linecap="round" stroke-linejoin="round" stroke-width="1.3"/><path d="M1070.87,1443.73a3.24,3.24,0,1,1,3.18-3.24A3.09,3.09,0,0,1,1070.87,1443.73Zm0-5.28a2,2,0,1,0,1.81,2A1.82,1.82,0,0,0,1070.88,1438.46Zm9.89,0.51-11.4,11.16-0.8-.8,11.39-11.16Zm-2.31,12.07a3.23,3.23,0,1,1,3.18-3.22A3.07,3.07,0,0,1,1078.47,1451Zm0-5.28a2,2,0,1,0,1.81,2A1.83,1.83,0,0,0,1078.48,1445.75Z" transform="translate(-1042.72 -1428.79)" fill="#8a8c8e"/><line x1="14.26" y1="37.26" x2="14.25" y2="40.25" fill="none" stroke="#8a8c8e" stroke-linecap="round" stroke-linejoin="round" stroke-width="1.3"/><line x1="21.73" y1="37.28" x2="21.72" y2="40.27" fill="none" stroke="#8a8c8e" stroke-linecap="round" stroke-linejoin="round" stroke-width="1.3"/><line x1="29.21" y1="37.3" x2="29.2" y2="40.29" fill="none" stroke="#8a8c8e" stroke-linecap="round" stroke-linejoin="round" stroke-width="1.3"/><line x1="36.68" y1="37.32" x2="36.67" y2="40.3" fill="none" stroke="#8a8c8e" stroke-linecap="round" stroke-linejoin="round" stroke-width="1.3"/><line x1="9.25" y1="10.1" x2="6.27" y2="10.1" fill="none" stroke="#8a8c8e" stroke-linecap="round" stroke-linejoin="round" stroke-width="1.3"/><line x1="9.24" y1="17.57" x2="6.25" y2="17.57" fill="none" stroke="#8a8c8e" stroke-linecap="round" stroke-linejoin="round" stroke-width="1.3"/><line x1="9.22" y1="25.05" x2="6.23" y2="25.04" fill="none" stroke="#8a8c8e" stroke-linecap="round" stroke-linejoin="round" stroke-width="1.3"/><line x1="9.2" y1="32.52" x2="6.21" y2="32.51" fill="none" stroke="#8a8c8e" stroke-linecap="round" stroke-linejoin="round" stroke-width="1.3"/><path d="M1081.44,1465.4l-2.08,0c-0.59,0-1.3,0-2.08,0s-1.34,0-2.07,0-1.36,0-2.08,0-1.37.05-2.08,0.05-1.38-.08-2.08-0.08-1.39.08-2.08,0.08h-2.08c-0.71,0-1.4-.07-2.08-0.07s-1.42,0-2.08,0h-2.08c-0.78,0-1.48,0-2.08,0-1.3,0-1,0-2.08,0a1.88,1.88,0,0,1-1.85-1.86c0-1,.07-1,0.07-2.08s0-1,0-2.07,0-1,0-2.08-0.09-1-.08-2.08,0.11-1,.11-2.08,0-1,0-2.08,0-1,0-2.07-0.07-1-.07-2.08,0-1,0-2.08,0.1-1,.1-2.08-0.09-1-.09-2.08,0.1-1,.1-2.08,0-1,0-2.08" transform="translate(-1042.72 -1428.79)" fill="none" stroke="#231f20" stroke-linecap="round" stroke-miterlimit="10" stroke-width="1.3"/></svg>