<svg id="Layer_1" data-name="Layer 1" xmlns="http://www.w3.org/2000/svg" viewBox="0 0 41.61 28.57"><title>icon_speech_bubbles</title><g id="_Group_" data-name="&lt;Group&gt;"><path d="M173.56,636c0,2.92,0,5.53-.1,8.33,0,0.7-.71,1.19-1.72,1.13-1.77-.1-2.28,0-2.84-0.12a24.57,24.57,0,0,0-5.74,0,13.79,13.79,0,0,1-2.32,0,2.6,2.6,0,0,0-2.08,1c-0.76.63-1.29,2.34-2.17,0.85-0.32-.55-0.6-1.12-0.92-1.67-0.21-.35-2.49-0.12-2.87-0.12-0.85,0-1.55.25-1.81-.74a38.46,38.46,0,0,1,0-4.46c-0.08-2.8-.47-5.74,0-8.4,0.15-1.65,4.45-1,5.67-1.2,1-.15,2,0.08,3.05-0.15s1.74,0.19,2.69.13a43.59,43.59,0,0,1,5,.1c1.74,0.09,1.11,0,3,0,1.05,0,2-.38,2.74.57s0.4,3.55.41,4.71V636Z" transform="translate(-150.33 -630.02)" fill="#cce59e" stroke="#333" stroke-miterlimit="10" stroke-width="0.85"/></g><g id="_Group_2" data-name="&lt;Group&gt;"><path d="M168.71,646c0,2.92,0,5.86.1,8.65,0,0.7.71,1.19,1.72,1.13,1.77-.1,2.28,0,2.84-0.13a24.59,24.59,0,0,1,5.75,0,13.79,13.79,0,0,0,2.32,0,2.61,2.61,0,0,1,2.08,1c0.76,0.64,1.29,2.34,2.17.85,0.32-.55.61-1.12,0.92-1.67,0.2-.35,1.43-0.12,1.81-0.12,0.85,0,2.61.25,2.87-.74a45.16,45.16,0,0,0,0-4.79c0.08-2.8.47-5.73,0-8.4-0.14-1.65-4.45-.71-5.66-0.88-1-.15-2,0.08-3.05-0.15s-1.74.19-2.7,0.13a42.54,42.54,0,0,0-5,.1c-1.73.09-1.11,0-3,0-1,0-2-.38-2.74.57s-0.4,3.22-.41,4.38V646Z" transform="translate(-150.33 -630.02)" fill="#cae6f7" stroke="#333" stroke-miterlimit="10" stroke-width="0.85"/></g><path d="M160.64,640.87a2.44,2.44,0,0,1,1-.09,0.27,0.27,0,0,1,.33.26c0,0.09,0,.56,0,0.65a0.55,0.55,0,0,1-.08.3,1.42,1.42,0,0,1-.51.09,1.24,1.24,0,0,1-.57,0A1.42,1.42,0,0,1,160.64,640.87Z" transform="translate(-150.33 -630.02)" fill="#333" fill-rule="evenodd"/><path d="M161.79,638.56a6.11,6.11,0,0,1-.07,1.13,2.36,2.36,0,0,1-1.09,0,5.07,5.07,0,0,1,0-.85c0-.38,0-0.6,0-1s0.39-.28.83-0.31a2.53,2.53,0,0,0,1.33-.44,1.26,1.26,0,0,0-1.13-2.2c-0.15,0-.32.11-0.51,0.16a2.73,2.73,0,0,1-1,.43,1,1,0,0,1-.06-0.49,1.82,1.82,0,0,1,0-.49,3.53,3.53,0,0,1,1.2-.47,6.4,6.4,0,0,1,1.19,0,3.16,3.16,0,0,1,1,.29,2.11,2.11,0,0,1,.86,2.23,2.42,2.42,0,0,1-.11.49,1.68,1.68,0,0,1-.21.41c-0.05.07-.48,0.45-0.57,0.52a3.44,3.44,0,0,1-.46.23l-0.38.2A6.1,6.1,0,0,0,161.79,638.56Z" transform="translate(-150.33 -630.02)" fill="#333" fill-rule="evenodd"/><text transform="translate(27.97 22.67) scale(0.81 1)" font-size="11.77" fill="#231f20" font-family="Gibson" font-weight="700">!</text></svg>